<?xml version="1.0" encoding="UTF-8"?>
<svg width="72px" height="71px" viewBox="0 0 72 71" version="1.1" xmlns="http://www.w3.org/2000/svg" xmlns:xlink="http://www.w3.org/1999/xlink">
    <title>Assured product</title>
    <g id="Page-1" stroke="none" stroke-width="1" fill="none" fill-rule="evenodd">
        <g id="icons" transform="translate(-418.000000, -583.000000)" fill="#3B1159" fill-rule="nonzero">
            <g id="Assured-product" transform="translate(418.000000, 583.000000)">
                <g id="Group" transform="translate(-0.000000, 0.000000)">
                    <path d="M24.5111217,48.89828 C24.5317116,50.5117083 25.2927161,52.0057149 26.7406012,52.7848386 C27.634205,53.2658198 28.6620552,53.4972508 29.6734335,53.5153699 C30.7144612,53.5343127 31.7571362,53.5145463 32.798164,53.5145463 C35.2903713,53.5145463 37.781755,53.5145463 40.2739623,53.5145463 C41.4706501,53.5145463 42.6665143,53.5145463 43.8632021,53.5145463 C44.7378631,53.5145463 45.6281725,53.5614914 46.5011863,53.5046632 C48.1994452,53.3934774 49.6423887,52.6415325 50.6644738,51.2834196 C51.1891056,50.5866557 51.5737259,49.7375262 51.7549174,48.8826316 C52.087651,47.3112068 52.2886089,45.7010728 52.5480422,44.1164704 C52.8190059,42.4635094 53.0866753,40.8105483 53.349403,39.1567637 C53.4803551,38.330695 53.6104835,37.5046263 53.7381412,36.6785576 C53.8682697,35.8335461 54.0395781,34.9786514 53.9860442,34.1196388 C53.9012136,32.7681146 53.416938,31.421532 52.3429663,30.5419294 C51.4930133,29.8459892 50.5038722,29.4671341 49.4233117,29.3221809 C48.4316998,29.188758 47.403026,29.2538223 46.4048253,29.2538223 C44.4043059,29.2538223 42.4046102,29.2538223 40.4040908,29.2538223 C40.258314,29.2538223 40.1125372,29.2538223 39.9659367,29.2538223 C40.4806854,29.768571 40.9954341,30.2833197 41.5101828,30.7980684 C41.5101828,29.6475021 41.5101828,28.4961122 41.5101828,27.3455459 C41.5101828,26.0047285 41.5554807,24.668029 41.37676,23.3362712 C41.1156794,21.3942273 40.426328,19.508188 38.7725433,18.3395026 C37.7562235,17.6213252 36.4187005,17.3948357 35.1997755,17.5414362 C34.3275853,17.6468567 33.4990458,17.8568742 32.705921,18.2414944 C32.2274106,18.473749 31.9407985,19.0634451 31.9407985,19.5748995 C31.9407985,20.4907403 31.9407985,21.4065812 31.9407985,22.3224221 C31.9407985,23.4112186 31.9407985,24.500015 31.9407985,25.5896351 C31.9407985,26.0417904 31.935857,26.4881804 31.9062074,26.9386885 C31.8831467,27.2911884 31.9729189,26.5721874 31.9119726,26.9164514 C31.8946771,27.0111651 31.8798523,27.1050553 31.8609095,27.1989454 C31.8180825,27.4122573 31.7645486,27.623922 31.700308,27.8322922 C31.6558337,27.9772455 31.6022998,28.1189043 31.5520603,28.2613868 C31.4433454,28.5710596 31.7093675,27.927006 31.5710031,28.2226777 C31.5331176,28.3025667 31.4977029,28.3832793 31.4581702,28.4623447 C31.2918034,28.7983726 31.0982579,29.121223 30.880828,29.4267778 C30.8396481,29.4844297 30.7951738,29.5404343 30.7556411,29.5989098 C30.6395138,29.768571 31.0101329,29.2900606 30.8149402,29.5198444 C30.7062253,29.6475021 30.5991575,29.7768069 30.485501,29.9003466 C30.2441868,30.1630744 29.9864007,30.4101538 29.7162605,30.643232 C29.6141344,30.7313569 29.5095375,30.8145403 29.4057641,30.9001945 C29.1718623,31.0945636 29.7137898,30.6786467 29.4667104,30.8532494 C29.4024697,30.8985473 29.3406999,30.9471396 29.2764593,30.9924375 C29.0087899,31.1843358 28.7328846,31.3647037 28.4503905,31.5335413 C27.9875285,31.8110938 27.5073709,32.0598204 27.015683,32.2813682 C26.8764949,32.3439617 26.4531656,32.4864441 27.0148594,32.2863098 C26.9012028,32.3266661 26.7900171,32.3785528 26.6771842,32.4222035 C26.4935219,32.4938565 26.3073887,32.5613915 26.120432,32.6248086 C25.9631248,32.6775188 25.804994,32.7302291 25.6443924,32.7722326 C24.9896321,32.9451882 24.5102981,33.5884181 24.5102981,34.2612976 C24.5102981,35.9051991 24.5102981,37.5491006 24.5102981,39.1938256 C24.5102981,41.8194558 24.5102981,44.445086 24.5102981,47.0707162 C24.5111217,47.679355 24.5111217,48.2888175 24.5111217,48.89828 C24.5111217,49.7062295 25.2210631,50.479588 26.0553678,50.4425261 C26.8921433,50.4046406 27.5996139,49.7638814 27.5996139,48.89828 C27.5996139,47.2543785 27.5996139,45.610477 27.5996139,43.965752 C27.5996139,41.3401218 27.5996139,38.7144916 27.5996139,36.0888614 C27.5996139,35.479399 27.5996139,34.8699365 27.5996139,34.260474 C27.2215824,34.7571036 26.843551,35.2529095 26.4655195,35.7495391 C28.2988485,35.2644399 30.0481705,34.2991832 31.5273524,33.1321449 C32.7709853,32.1512398 33.7700095,30.8927821 34.3860608,29.4317194 C35.2121295,27.4732036 35.0284672,25.3400849 35.0284672,23.2613238 C35.0284672,22.0316921 35.0284672,20.802884 35.0284672,19.5732523 C34.7731518,20.0179951 34.51866,20.4619144 34.2633447,20.9066573 C34.2946414,20.8918325 34.3292325,20.8803022 34.3597056,20.8630066 C34.4791273,20.7954716 33.8638997,21.0581993 34.1249802,20.962662 C34.1826321,20.9412484 34.2394604,20.9181877 34.2979358,20.8967741 C34.6117266,20.7831176 34.934577,20.6933454 35.262369,20.6291048 C35.3546119,20.6109856 35.733467,20.5566282 35.3809671,20.6027497 C35.0218784,20.6505183 35.4419133,20.5994553 35.5423923,20.5928665 C35.7680581,20.5780417 35.9945475,20.5772181 36.2202134,20.5945137 C36.2696292,20.5986317 36.3198687,20.6060441 36.3692846,20.6085148 C36.5718897,20.6200452 35.9187765,20.5253315 36.1831515,20.5854541 C36.3083383,20.61428 36.4343488,20.63487 36.5587121,20.6702847 C36.6740158,20.7032286 36.7901431,20.7649985 36.9062704,20.7888828 C36.8296758,20.7732344 36.5167086,20.6027497 36.7333149,20.7197006 C36.7975555,20.7542917 36.8634433,20.7847648 36.9268604,20.8210031 C37.0396933,20.8852438 37.142643,20.9774867 37.2571231,21.0359622 C37.1418194,20.9758395 36.9449795,20.76994 37.1500554,20.9601912 C37.2019421,21.0079598 37.2546524,21.0549049 37.3048918,21.1043208 C37.4078416,21.2064469 37.4918486,21.3431642 37.6005635,21.4354072 C37.5964455,21.4321128 37.3617201,21.0952612 37.4794946,21.2830415 C37.4976137,21.3118675 37.5190273,21.3390462 37.53797,21.3678721 C37.5906803,21.4461139 37.6409198,21.5260029 37.6886885,21.6075391 C37.7718719,21.749198 37.8402305,21.8974456 37.9151779,22.0432224 C38.02554,22.2573579 37.7883438,21.6964877 37.9011767,22.0119257 C37.9398858,22.119817 37.9810657,22.2277084 38.0164804,22.3372469 C38.1589629,22.7737538 38.252853,23.2217911 38.328624,23.6747699 C38.3936883,24.0692733 38.3129757,23.4680468 38.3401544,23.7637185 C38.353332,23.9012594 38.3681567,24.0388002 38.3796871,24.1771647 C38.3986299,24.4102429 38.4142782,24.6441447 38.4183962,24.8780465 C38.420867,24.9933502 38.4183962,25.1086539 38.4183962,25.223134 C38.4183962,25.8218897 38.4183962,26.4206454 38.4183962,27.0194011 C38.4183962,28.2770351 38.4183962,29.5354928 38.4183962,30.7931268 C38.4183962,31.6282551 39.1258668,32.3373729 39.9626423,32.3373729 C42.7365201,32.3373729 45.5194575,32.4073787 48.2916881,32.3307841 C48.4975876,32.3250189 48.7026635,32.3291369 48.908563,32.3456089 C48.980216,32.3513741 49.051869,32.3612572 49.1226984,32.3670224 C49.3005956,32.3810236 48.6145385,32.279721 48.9917464,32.3521977 C49.1696435,32.3859652 49.3467171,32.4213799 49.5213198,32.4707958 C49.6003852,32.4930329 49.6794506,32.5177408 49.7568689,32.544096 C49.9207648,32.6001006 50.1571374,32.763173 49.7041586,32.5111521 C49.8927625,32.6165726 50.0854844,32.7063448 50.270794,32.8200013 C50.5607004,32.998722 50.0097134,32.5729219 50.2254961,32.779645 C50.3004435,32.851298 50.3811561,32.9171858 50.4536327,32.9921332 C50.5186969,33.0596683 50.573878,33.1486169 50.6438838,33.2095631 C50.3457414,32.9526005 50.4725754,32.9641309 50.557406,33.1123785 C50.5911735,33.1716776 50.6298827,33.2285058 50.6636502,33.2878049 C50.6867109,33.3289848 50.7064773,33.3709883 50.729538,33.4121682 C50.8703732,33.662542 50.641413,33.4426413 50.6916525,33.3083948 C50.6710625,33.3627523 50.797073,33.6188913 50.8118978,33.6740723 C50.8440181,33.793494 50.8580193,33.9186809 50.8909632,34.037279 C50.9469679,34.2374133 50.8555485,33.6155969 50.876962,33.9318585 C50.8835508,34.024925 50.8926104,34.117168 50.8967284,34.2102346 C50.9115531,34.5396737 50.9354375,34.9341772 50.8506069,35.2553803 C50.9584982,34.848523 50.8242518,35.4028044 50.8069562,35.5164609 C50.7781303,35.7050648 50.7493044,35.8928451 50.7196548,36.0814491 C50.4659867,37.7212325 50.2040825,39.3593688 49.938884,40.9966815 C49.5748537,43.2442802 49.2025874,45.4902318 48.8294976,47.7361833 C48.7751401,48.0615045 48.7018399,48.3785897 48.5923014,48.6907333 C48.5618283,48.7772111 48.5231192,48.8620417 48.4942932,48.9485194 C48.6705432,48.4164752 48.5667699,48.7772111 48.5000584,48.9114575 C48.4012267,49.1115918 48.2892173,49.3059609 48.1632069,49.4896233 C48.1294394,49.5390392 48.0577863,49.6073978 48.0388436,49.6634024 C48.0454324,49.6444597 48.3023949,49.3619656 48.1434405,49.5217436 C48.0553155,49.6106922 47.9778973,49.7095239 47.8881252,49.7968253 C47.8057654,49.8775379 47.6624593,49.9623685 47.5965715,50.0546115 C47.7711743,49.8100029 47.8411801,49.8874211 47.7159932,49.9566033 C47.6319862,50.0027248 47.5553916,50.0628474 47.4722082,50.1114397 C47.407144,50.1493252 46.9821674,50.3585191 47.2317176,50.2432154 C47.4820914,50.1279117 47.2070097,50.2465098 47.163359,50.2613345 C47.1040599,50.2811009 47.0447609,50.29922 46.9846382,50.3165156 C46.9508707,50.3263988 46.5143638,50.3947574 46.5061278,50.4211125 C46.5316594,50.3436943 46.8718053,50.3988754 46.5522493,50.407935 C46.4229445,50.412053 46.2936396,50.4219361 46.1635111,50.4227597 C45.8225416,50.4260541 45.481572,50.4227597 45.1397789,50.4227597 C44.1391074,50.4227597 43.1392595,50.4227597 42.138588,50.4227597 C39.6916786,50.4227597 37.2447692,50.4227597 34.7978597,50.4227597 C33.2050214,50.4227597 31.6130066,50.4227597 30.0201682,50.4227597 C29.7277909,50.4227597 29.4403552,50.412053 29.147978,50.3865214 C28.9387841,50.3684023 29.6396659,50.4729992 29.2665761,50.399699 C29.1800983,50.3824034 29.0936205,50.3684023 29.0071427,50.3486359 C28.7748881,50.2967492 28.5541639,50.2218018 28.3301452,50.1443836 C28.1193042,50.0710834 28.508866,50.2176838 28.5113368,50.2209782 C28.4742749,50.1830927 28.3737959,50.155914 28.3260273,50.1303825 C28.2329607,50.0817902 28.1423649,50.0290799 28.0550635,49.9714281 C27.6992692,49.7383498 28.2469619,50.172386 28.0278848,49.9533089 C27.9941173,49.9195414 27.7923358,49.664226 27.7486851,49.6634024 C27.873872,49.6658732 27.9636442,49.9903708 27.8335157,49.7630578 C27.8013954,49.7070531 27.7668043,49.6518721 27.7330367,49.596691 C27.5271373,49.2590159 27.8228089,49.9096582 27.693504,49.5151548 C27.6564421,49.4014983 27.6523242,49.1659493 27.5880835,49.0802951 C27.6094971,49.1082974 27.6160858,49.4747985 27.6078499,49.2030112 C27.6045555,49.1000615 27.5971431,48.9971117 27.5954959,48.8933384 C27.5847891,48.0862124 26.8929669,47.3112068 26.0512498,47.3490923 C25.2276519,47.3910958 24.4995913,48.0326785 24.5111217,48.89828 Z" id="Path"></path>
                    <path d="M24.8899767,49.8676547 C23.28149,49.8676547 21.6730032,49.8676547 20.0645165,49.8676547 C19.9780387,49.8676547 19.8610878,49.8478884 19.7762572,49.8676547 C19.77461,49.8684783 19.7350773,49.8660075 19.7342537,49.8676547 C19.7531965,49.8165917 20.0999312,50.0027248 19.8174371,49.8758907 C20.0167478,49.9722517 20.0431029,49.9804876 19.8948553,49.9005986 C19.9434476,49.9384841 19.9912163,49.9763696 20.0398085,50.0142552 C19.7836696,49.7927073 20.1855854,50.2926313 20.0274546,49.9928416 C20.0496917,50.0348451 20.1493471,50.3181628 20.0793412,50.0570822 C20.4458423,51.4209604 20.098284,50.2613345 20.1131087,50.2374502 C20.1254627,50.2185074 20.1114616,50.1616792 20.1131087,50.1386184 C20.1386403,49.6955228 20.1131087,49.2433675 20.1131087,48.7994482 C20.1131087,44.9310088 20.1131087,41.0617457 20.1131087,37.1933063 C20.1131087,36.4990132 20.1131087,35.8055438 20.1131087,35.1112507 C20.1131087,34.924294 20.1131087,34.7373372 20.1131087,34.5503805 C20.1131087,34.3831901 20.1501707,34.2761224 20.0793412,34.5536749 C20.165819,34.2192942 19.8792069,34.8007543 20.0801648,34.5256726 C20.0480445,34.5701469 19.8479102,34.7612216 20.0406321,34.596502 C19.9920399,34.6343875 19.9442712,34.672273 19.8956789,34.7101585 C20.0167478,34.6450943 20.0192186,34.6409763 19.9030913,34.6961574 C19.8750889,34.7093349 19.846263,34.7216889 19.8182607,34.7348665 C19.9862747,34.6961574 19.9590959,34.6994517 19.7350773,34.7431024 C19.7350773,34.743926 19.8907373,34.7431024 19.8973261,34.7431024 C20.2555912,34.7538092 20.6163271,34.7431024 20.9745922,34.7431024 C22.0007952,34.7431024 23.0269982,34.7431024 24.0532012,34.7431024 C24.2805142,34.7431024 24.6363086,34.8131083 24.8553856,34.7431024 C24.8570328,34.7422788 24.8899767,34.743926 24.8899767,34.7431024 C24.8265597,34.7315721 24.7639662,34.7200417 24.7005492,34.7093349 C24.8339721,34.7488676 24.8413844,34.743926 24.7211391,34.6961574 C24.6931368,34.6829798 24.6643109,34.6706258 24.6363086,34.6574482 C24.778791,34.743926 24.7614954,34.7233361 24.5835983,34.5956784 C24.7763202,34.7612216 24.5761859,34.5693233 24.5440656,34.524849 C24.7450235,34.7999307 24.4584114,34.2184706 24.5448892,34.5528513 C24.5424184,34.5429681 24.5259464,34.3494226 24.5111217,34.3724834 C24.4773542,34.4251936 24.5111217,34.6113268 24.5111217,34.6714494 C24.5111217,34.8971152 24.5111217,35.1227811 24.5111217,35.3492705 C24.5111217,37.0697666 24.5111217,38.7902626 24.5111217,40.5107587 C24.5111217,42.5886963 24.5111217,44.6674574 24.5111217,46.745395 C24.5111217,47.5245186 24.5111217,48.3044659 24.5111217,49.0835895 C24.5111217,49.4360894 24.446881,49.8569479 24.5111217,50.2045063 C24.5234756,50.2728649 24.4435866,50.4351137 24.5448892,50.055435 C24.4748834,50.3165156 24.5745387,50.0331979 24.5967758,49.9911944 C24.438645,50.2918077 24.8397372,49.7918837 24.5844219,50.012608 C24.623131,49.979664 24.866916,49.8289456 24.6371321,49.9508381 C24.6939604,49.9253066 24.7507887,49.899775 24.8067933,49.8742435 C24.6379557,49.9145998 24.6659581,49.912129 24.8899767,49.8676547 C24.0844979,49.9055402 23.3070215,50.5504174 23.3457306,51.4119008 C23.3819689,52.2157324 24.0260225,52.9973268 24.8899767,52.9561469 C26.5091702,52.8795523 27.5996139,51.6416847 27.5996139,50.0513171 C27.5996139,49.512684 27.5996139,48.9732274 27.5996139,48.4345943 C27.5996139,46.3920715 27.5996139,44.348725 27.5996139,42.3062022 C27.5996139,40.2636793 27.5996139,38.2203329 27.5996139,36.17781 C27.5996139,35.639177 27.5996139,35.0997203 27.5996139,34.5610873 C27.5996139,32.9855445 26.5099938,31.7097913 24.8899767,31.6562574 C23.2304269,31.6010764 21.5576995,31.6463742 19.8965025,31.6562574 C18.3061349,31.6661406 17.0608548,32.787881 17.0246165,34.4103689 C17.0147334,34.8287566 17.0246165,35.247968 17.0246165,35.6663557 C17.0246165,39.7201047 17.0246165,43.7738537 17.0246165,47.8276027 C17.0246165,48.4815394 17.0246165,49.1346526 17.0246165,49.7885893 C17.0246165,50.702783 17.1843945,51.5675608 17.8968067,52.2338516 C18.7862925,53.0665091 19.9352116,52.9569705 21.0462452,52.9569705 C22.1086865,52.9569705 23.1703042,52.9569705 24.2327456,52.9569705 C24.4518226,52.9569705 24.6708997,52.9569705 24.8899767,52.9569705 C25.6979263,52.9569705 26.4712847,52.2470291 26.4342228,51.4127244 C26.3963373,50.5751253 25.7555781,49.8676547 24.8899767,49.8676547 Z" id="Path"></path>
                    <path d="M64.8665964,37.9411332 C65.7099607,39.4021959 66.5533249,40.862435 67.3966892,42.3234977 C67.4963446,42.4956297 67.5984707,42.6669381 67.6956552,42.8407172 C67.7442475,42.9280186 67.7582487,42.9584917 67.8051938,43.0466167 C67.9526178,43.3216984 67.794487,43.0004952 67.7837802,42.9922592 C67.9163795,43.095209 67.8233129,43.4221774 67.9303807,43.5292451 C67.9229683,43.4650045 67.9155559,43.4007638 67.9081435,43.3365232 C67.9163795,43.4089998 67.9221447,43.4814764 67.9262627,43.5547766 C67.9295571,43.6272532 67.9312043,43.7005535 67.9295571,43.7730301 C67.9287335,43.8397415 67.9468526,44.0431702 67.9081435,44.0983513 C67.9155559,44.033287 67.9237919,43.9673992 67.9312043,43.902335 C67.9180267,43.9731644 67.9032019,44.0439938 67.8850828,44.1139996 C67.8677872,44.1840054 67.8480209,44.2531877 67.8257837,44.3223699 C67.8142534,44.3561374 67.802723,44.3907285 67.7911926,44.424496 C67.7302464,44.5826268 67.7409531,44.5595661 67.8224893,44.3561374 C67.8455501,44.4549692 67.5968235,44.7555824 67.550702,44.8272354 C67.3876296,45.0817272 67.5902347,44.7868791 67.5910583,44.7761724 C67.5844695,44.836295 67.4057488,44.9771302 67.3629217,45.0183101 C67.3423317,45.0380765 67.1982021,45.1714994 67.1957313,45.168205 C67.3612745,45.0446653 67.3736285,45.0331349 67.235264,45.1319667 C67.1874953,45.1649106 67.1389031,45.1953837 67.0886636,45.2250332 C66.9165316,45.3296302 66.7394581,45.4276383 66.5648553,45.5289409 C65.090615,46.3797175 63.60155,47.2099042 62.1404872,48.082918 C60.6217727,48.9905229 59.7256981,50.5948917 59.7166386,52.359862 C59.7125206,53.1702824 59.7166386,53.9807028 59.7166386,54.7911231 C59.7166386,55.7366135 59.7166386,56.682104 59.7166386,57.628418 C59.7166386,57.7223081 59.7174622,57.8161983 59.7166386,57.9100885 C59.7166386,57.9224424 59.7166386,57.93562 59.7166386,57.947974 C59.7149914,58.0418641 59.7051082,58.1365779 59.7042846,58.230468 C59.6935778,58.3498897 59.7001666,58.3054155 59.7248745,58.0962216 C59.7125206,58.1686982 59.6976958,58.2403512 59.6804002,58.3120042 C59.6631047,58.3828337 59.6441619,58.4528395 59.6227484,58.5220217 C59.611218,58.5566128 59.6005112,58.5903803 59.5889809,58.6249715 C59.5288582,58.7839259 59.5403886,58.7608651 59.623572,58.5557892 C59.6433383,58.6694457 59.4168489,58.9264083 59.3616678,59.0202985 C59.2628361,59.1883124 59.3954354,59.0713615 59.4127309,58.9626466 C59.4044949,59.0186513 59.2768373,59.117483 59.2356574,59.1594865 C59.1738875,59.2229035 59.1071761,59.2805554 59.0445826,59.3423252 C58.8156224,59.5704619 59.2793081,59.2080788 59.0215219,59.3604444 C58.9276317,59.4156255 58.6706692,59.6421149 58.5570127,59.6223485 C58.6138409,59.5984642 58.6706692,59.5745799 58.7274974,59.5506955 C58.6599624,59.5762271 58.5924274,59.6001114 58.5232452,59.6215249 C58.4540629,59.6429385 58.3832335,59.6627048 58.3132277,59.6791768 C58.277813,59.6874128 58.2415747,59.6948252 58.20616,59.7030611 C58.0348516,59.7335343 58.0620303,59.7318871 58.2876962,59.6981196 C58.2605174,59.7178859 58.0785023,59.7129443 58.0628539,59.7129443 C58.0109673,59.7145915 57.9615514,59.7145915 57.9113119,59.7145915 C57.6395246,59.7178859 57.3669137,59.7145915 57.0951264,59.7145915 C56.0392738,59.7145915 54.9842449,59.7145915 53.9283923,59.7145915 C53.2266869,59.7145915 52.5043915,59.6676464 51.8059805,59.7500062 C50.1472543,59.9451989 48.8146728,60.8775118 47.9836625,62.3155138 C47.0974712,63.8507003 46.2145742,65.3883576 45.3250884,66.9210734 C45.2929681,66.9762544 45.2616714,67.0322591 45.2287275,67.0866165 C45.1850768,67.1582696 45.1356609,67.2743969 45.0705967,67.3271071 C45.2995569,67.1434448 45.1694284,67.2101562 45.0994226,67.2785149 C45.0203572,67.3551095 44.9404682,67.4366457 44.8638736,67.5157111 C44.6225594,67.7669084 45.1233069,67.3616982 44.8317533,67.548655 C44.7601002,67.5947765 44.4586634,67.843503 44.3606552,67.8204423 C44.4174835,67.7973815 44.4743118,67.7743208 44.5303164,67.7504365 C44.4800769,67.7702028 44.4290139,67.7891456 44.3779508,67.8056175 C44.291473,67.8295019 44.2066424,67.859975 44.1185175,67.8822121 C44.0575712,67.8978605 43.7948435,68.0189294 44.0048609,67.9159796 C44.1926413,67.8237367 43.980153,67.9176268 43.8870864,67.9225684 C43.7964907,67.92751 43.7058949,67.92751 43.6152991,67.9242156 C43.5609417,67.923392 43.5057606,67.9200976 43.4514031,67.915156 C43.277624,67.8970369 43.3056263,67.9011549 43.5354101,67.9266864 C43.4917594,67.9612775 43.0288974,67.8187951 42.9984243,67.780086 C43.0066603,67.7907928 43.3278635,67.9489236 43.0536053,67.8014995 C42.966304,67.7545545 42.9350072,67.7405533 42.8477059,67.691961 C42.7966428,67.6639587 42.7464033,67.6334856 42.6961638,67.6046596 C42.378255,67.4209973 42.0603462,67.237335 41.7424374,67.0536726 C40.8265966,66.5249227 39.9107557,65.9961729 38.9940912,65.467423 C38.185318,65.000443 37.3847808,64.4725167 36.44835,64.3053263 C35.2763701,64.0961325 34.1183915,64.2830892 33.0757165,64.8637257 C32.8937013,64.9650283 32.7149806,65.072096 32.5346126,65.1758693 C31.6426561,65.6906181 30.7515231,66.2053668 29.8595666,66.7201155 C29.2978728,67.044613 28.7411206,67.3773466 28.1744852,67.6927846 C28.0904782,67.7397297 28.0031769,67.7809096 27.9183463,67.8262075 C27.718212,67.9332752 28.2659046,67.7216105 27.9183463,67.8171479 C27.8466933,67.8369142 27.7758638,67.8616222 27.7042108,67.8797413 C27.6679725,67.8879773 27.6325578,67.8970369 27.5963195,67.9052729 C27.4241875,67.9365696 27.4521899,67.9365696 27.6811501,67.9044493 C27.5609048,67.9711607 27.2635859,67.9283336 27.1367518,67.9217448 C27.1153383,67.9209212 26.9506187,67.9242156 26.9201456,67.9036257 C27.1515766,67.9365696 27.1812261,67.9365696 27.0099178,67.9052729 C26.9572075,67.8937425 26.9044972,67.8813885 26.8526106,67.8665638 C26.7653092,67.843503 26.6804786,67.8122063 26.5940008,67.7866748 C26.276092,67.691961 26.7628384,67.9217448 26.6137672,67.7940872 C26.4959927,67.6936082 26.2859752,67.5873641 26.1467871,67.5140639 C25.960654,67.4168793 26.4037497,67.759496 26.1599647,67.5132403 C26.1072544,67.46053 26.0520734,67.4119377 26.0010103,67.3575803 C25.9754788,67.3304015 25.9499472,67.3023992 25.9252393,67.2752205 C25.8165244,67.1459156 25.8264076,67.1623875 25.9540652,67.3238127 C25.9351225,67.3287543 25.7753445,67.0495546 25.7654613,67.0330827 C24.9056251,65.5926099 24.0869687,64.1266056 23.248546,62.6737789 C22.6481432,61.6343983 21.9382017,60.6839663 20.7991658,60.1815715 C19.786964,59.7351815 18.7969993,59.7112971 17.7246748,59.7112971 C16.6721166,59.7112971 15.6187349,59.7112971 14.5661767,59.7112971 C14.1626137,59.7112971 13.7582272,59.7112971 13.3546642,59.7112971 C13.2698336,59.7112971 13.1841794,59.7121207 13.0993488,59.7112971 C13.0721701,59.7112971 13.0449914,59.7112971 13.0178126,59.7104735 C12.9527484,59.7088263 12.7880288,59.7302399 12.7361421,59.6940016 C12.961808,59.7277691 12.9898103,59.7294163 12.8176783,59.6989431 C12.7822636,59.6907072 12.7460253,59.6832948 12.7106106,59.6750588 C12.6043665,59.6495273 12.5022403,59.6141126 12.3976434,59.5836394 C12.1027953,59.4979853 12.4651784,59.6190542 12.4668256,59.6182306 C12.3539927,59.6396441 12.1027953,59.4148019 12.0023164,59.3563264 C11.6992323,59.1800765 12.226335,59.5861102 11.9792556,59.3382073 C11.9298398,59.2879678 11.8746587,59.2434935 11.8244192,59.193254 C11.7840629,59.1528977 11.6168726,59.0161805 11.6111074,58.957705 C11.6481693,59.0062973 11.6852312,59.054066 11.7231167,59.1026583 C11.6819368,59.0450064 11.6415805,58.9865309 11.6045186,58.9264083 C11.5567499,58.8506373 11.5180408,58.7707483 11.4719193,58.6949773 C11.4636833,58.6793289 11.4554474,58.6636806 11.4472114,58.6472086 C11.3755584,58.4940194 11.3837943,58.5187273 11.4727429,58.7213324 C11.3780292,58.6513266 11.3467324,58.2996503 11.3203773,58.1999949 C11.2413119,57.8985581 11.3220245,58.2774131 11.3253189,58.2815311 C11.2849626,58.2288209 11.3088469,58.0080966 11.3080233,57.9430324 C11.3080233,57.927384 11.3080233,57.9125593 11.3080233,57.8969109 C11.2989638,57.1046097 11.3080233,56.3123085 11.3080233,55.5200073 C11.3080233,54.5613393 11.3080233,53.6018477 11.3080233,52.6431797 C11.3080233,51.2158845 10.9102255,49.8627131 9.87002136,48.8332157 C9.2580881,48.2278713 8.45919811,47.8341914 7.72043078,47.4075677 C6.79553031,46.8738763 5.87062984,46.3393612 4.94572937,45.8056698 C4.66076448,45.6409502 4.374976,45.4770542 4.09001112,45.311511 C4.0216525,45.2719783 3.95329387,45.2332692 3.88658244,45.1920893 C3.87011048,45.1813825 3.57196803,44.9598347 3.76221915,45.1146711 C3.95247027,45.2703311 3.67491777,45.0281933 3.6617402,45.0158393 C3.59502877,44.9524223 3.53737692,44.8774749 3.46984189,44.8148815 C3.39571807,44.7284037 3.41877881,44.7613476 3.53737692,44.9137132 C3.49372623,44.8552378 3.45254633,44.7951151 3.41301363,44.7333453 C3.37348093,44.672399 3.33641902,44.6098056 3.30100431,44.5463885 C3.28370875,44.5142682 3.2672368,44.4821479 3.24994124,44.4508512 C3.17746462,44.297662 3.184877,44.3215463 3.27135479,44.5233278 C3.16840505,44.4146129 3.15605108,44.1444727 3.11487118,44.0061083 C3.06216091,43.8282111 3.03333499,43.9632812 3.11651838,44.0958805 C3.07780927,44.0341106 3.09592843,43.8430359 3.09510483,43.7705593 C3.09345763,43.6980827 3.09510483,43.6247825 3.09839922,43.5523058 C3.10169361,43.4790056 3.1082824,43.406529 3.11651838,43.3340524 C3.10910599,43.398293 3.10169361,43.4625337 3.09428123,43.5267743 C3.0654553,43.4913596 3.19228939,43.027674 3.24088166,42.9897885 C3.21782092,43.0424987 3.19393658,43.095209 3.17087584,43.1487429 C3.20217256,43.078737 3.23594008,43.0095548 3.27217838,42.9420198 C3.30018071,42.8893095 3.31006389,42.8736611 3.32900664,42.83907 C3.36277416,42.7789474 3.39818887,42.7196483 3.43277998,42.6595257 C4.31650055,41.1284571 5.20516271,39.5998594 6.0847653,38.0663201 C6.98495783,36.497366 7.04260968,34.6582718 6.15641832,33.0654335 C5.81627237,32.4543238 5.45636008,31.8530973 5.10715456,31.2477528 C4.60558342,30.378857 4.10401229,29.5099612 3.60244115,28.6410654 C3.5019622,28.4664626 3.39736527,28.2926835 3.30018071,28.1164335 C3.25653002,28.0373681 3.19393658,27.9467724 3.17087584,27.8586474 C3.25982441,28.2053821 3.21617372,27.9500667 3.1873478,27.8570002 C3.16016907,27.7680516 3.14287351,27.6766322 3.11569478,27.5876837 C3.01356864,27.2557737 3.10251721,27.8281743 3.11075319,27.6173332 C3.11734197,27.4550844 3.09016324,27.2903648 3.09839922,27.1272924 C3.10087002,27.0910541 3.10334081,27.0548158 3.1058116,27.0185775 C3.12393076,26.8447983 3.11981277,26.8744479 3.09345763,27.1067025 C3.07533848,27.0910541 3.16099266,26.8135016 3.16758145,26.7904409 C3.18899499,26.7163171 3.21782092,26.5392435 3.27135479,26.4832388 C3.25982441,26.4955928 3.09922282,26.8093836 3.24994124,26.5557155 C3.33477183,26.413233 3.41301363,26.2073335 3.53737692,26.0928534 C3.27711997,26.3325204 3.47478347,26.1834492 3.5439657,26.110149 C3.60820634,26.042614 3.67903576,25.9816677 3.7432764,25.9149563 C3.99035577,25.6604645 3.55302528,26.0228476 3.7424528,25.9108383 C3.82563619,25.8614224 3.90387799,25.8045942 3.98706138,25.7543547 C4.15836975,25.6522285 4.33214891,25.555044 4.50428088,25.4553886 C5.39211944,24.9422871 6.279958,24.4300092 7.16862017,23.9169077 C7.74102072,23.5866449 8.32001006,23.2637946 8.88746903,22.9244722 C10.4152432,22.0111021 11.2997874,20.4001446 11.3080233,18.6277618 C11.3162593,16.8660859 11.3080233,15.1044099 11.3080233,13.3435576 C11.3080233,13.258727 11.3071997,13.1730728 11.3080233,13.0882422 C11.3088469,13.0421207 11.3080233,12.99847 11.3096705,12.9498777 C11.3113177,12.9119922 11.3137885,12.8749303 11.3154357,12.8370448 C11.3319077,12.6616185 11.3269661,12.6879736 11.2997874,12.9152866 C11.2709614,12.8601056 11.3566156,12.6459701 11.3714404,12.5940834 C11.3945011,12.5117237 11.4422698,12.4203043 11.4546238,12.3362973 C11.4834497,12.1378102 11.2791974,12.6467937 11.448035,12.3601816 C11.5130992,12.2498195 11.6111074,11.9566187 11.7239403,11.9055556 C11.6168726,11.9541479 11.5460431,12.1048663 11.6811132,11.9697962 C11.7560606,11.8948488 11.8244192,11.8141362 11.9018374,11.7416596 C11.910897,11.7334236 12.0311423,11.6049423 12.0607918,11.6016479 C11.8861891,11.7326 11.8672463,11.7498956 12.00314,11.652711 C12.0467907,11.6230615 12.0920886,11.5942356 12.1373864,11.5670568 C12.2131575,11.5209353 12.2938701,11.4822262 12.3704647,11.437752 C12.6579003,11.269738 12.1480932,11.4731667 12.3465803,11.4443407 C12.5145943,11.4196328 12.705669,11.3438618 12.8720358,11.3002111 C13.0919364,11.2425592 12.4832976,11.3166831 12.8481515,11.3059763 C12.9239225,11.3035055 12.9988699,11.2993875 13.0746409,11.2985639 C13.09276,11.2985639 13.1108792,11.2985639 13.1289983,11.2985639 C13.4263172,11.2969167 13.723636,11.2985639 14.0209549,11.2985639 C15.0702187,11.2985639 16.120306,11.2985639 17.1695698,11.2985639 C17.9882261,11.2985639 18.8184128,11.3430382 19.6288332,11.2079681 C21.1277814,10.9575944 22.3154096,9.9536285 23.0574713,8.66716854 C23.5228042,7.86168977 23.988137,7.056211 24.4526462,6.24990863 C24.8743284,5.51937727 25.2935397,4.78719872 25.7176926,4.05831455 C25.7728737,3.96442439 25.8329963,3.87300502 25.8881774,3.77911486 C25.9557124,3.66381115 25.9260629,3.6012177 25.8519391,3.81864756 C25.8791178,3.73958216 26.0207767,3.63004363 26.0800757,3.57239178 C26.1006657,3.55180183 26.2447953,3.42743854 26.2439717,3.42332055 C26.0734869,3.54850744 26.057015,3.5625086 26.1929086,3.46367685 C26.2233818,3.4430869 26.2538549,3.42332055 26.2835044,3.4027306 C26.3757474,3.34343155 26.4729319,3.29566287 26.5668221,3.23965822 C26.8204902,3.08976339 26.5066994,3.24954139 26.4943455,3.26107176 C26.6022368,3.15647482 26.8690825,3.14741525 27.011565,3.10458816 C27.3558289,2.99916762 26.6689482,3.10705895 27.0296841,3.09552858 C27.1021607,3.09305778 27.1738138,3.0856454 27.2462904,3.08482181 C27.3558289,3.08317461 27.4637202,3.09141059 27.5732587,3.09552858 C27.8837552,3.10623535 27.2751163,3.00658 27.5979667,3.10541175 C27.6860917,3.13259049 27.7783346,3.14906244 27.8672832,3.17706477 C28.172838,3.27177853 27.8590472,3.19353673 27.8689304,3.16059281 C27.8705776,3.15565123 28.1720144,3.31542922 28.1827212,3.32119441 C28.2469619,3.35660912 28.3095553,3.39449463 28.3729723,3.43073293 C28.6966463,3.61768966 29.0211439,3.80464639 29.3448179,3.99160312 C30.2598352,4.52035299 31.1756761,5.04827926 32.0906934,5.57702913 C32.9974747,6.10083741 33.8457805,6.60735013 34.9139871,6.75065617 C36.2704528,6.93267131 37.4251371,6.45004293 38.5625259,5.79363538 C40.022765,4.9502711 41.4624142,4.05090217 42.9523028,3.26107176 C42.9868939,3.2437762 43.0206614,3.22648065 43.0552525,3.20836149 C43.2117361,3.13588488 43.193617,3.14329726 43.0008951,3.22977504 C43.0206614,3.2042435 43.2002058,3.16388721 43.2142069,3.15976922 C43.252916,3.14823885 43.5082314,3.05764307 43.5378809,3.08317461 C43.5395281,3.08482181 43.1376123,3.10870615 43.4538739,3.09470498 C43.6375363,3.086469 43.8137862,3.0889398 43.9982722,3.09470498 C44.3351237,3.10623535 43.7833131,3.00410921 43.9628575,3.09305778 C44.0666308,3.14412086 44.2173492,3.15153324 44.3293585,3.18777155 C44.3590081,3.19765472 44.5014905,3.23059864 44.5336108,3.26024816 C44.4767826,3.23718742 44.4199543,3.21412668 44.3639496,3.19024234 C44.4298375,3.22153906 44.4940781,3.25448298 44.5574952,3.28907409 C44.6209122,3.3244888 44.6835056,3.36155071 44.7444519,3.40108341 C44.774925,3.42167336 44.8053981,3.44143971 44.8350477,3.46202965 C44.9709413,3.56003781 44.9536458,3.54686024 44.7839846,3.42167336 C44.8663444,3.43073293 45.1537801,3.74534734 45.1760172,3.81782396 C45.1694284,3.79558681 44.9832953,3.52132871 45.1397789,3.77829126 C45.1850768,3.85323867 45.2180207,3.90100735 45.2633186,3.97595476 C45.6158185,4.56565087 45.9510228,5.16687736 46.2944632,5.76151506 C46.8026231,6.64194124 47.310783,7.52236742 47.8189429,8.40279361 C47.9103623,8.56092441 47.9993109,8.7207024 48.0923774,8.87718601 C48.6779556,9.85644394 49.5419098,10.567209 50.5977623,10.9831259 C51.4905425,11.3348022 52.4302677,11.2977403 53.3683458,11.2977403 C54.4233747,11.2977403 55.4792272,11.2977403 56.5342562,11.2977403 C56.9262888,11.2977403 57.3183214,11.2977403 57.710354,11.2977403 C57.7869486,11.2977403 57.8635432,11.2969167 57.9393142,11.2977403 C58.0192032,11.2985639 58.0999158,11.3043291 58.1798048,11.3051527 C58.501008,11.3100943 58.1007394,11.2895043 58.101563,11.2895043 C58.1633329,11.2565604 58.4071179,11.3562158 58.4754765,11.3759821 C58.5347755,11.3932777 58.6945535,11.4163384 58.732439,11.4624599 C58.6756108,11.4385756 58.6187825,11.4146912 58.5619543,11.3908069 C58.6105465,11.413044 58.6583152,11.4369284 58.7060839,11.4624599 C58.7818549,11.5085814 58.8617439,11.5472905 58.9375149,11.5950592 C58.9605757,11.6098839 59.2422462,11.8141362 59.0412883,11.6584762 C58.8403304,11.5019926 59.1088233,11.724364 59.127766,11.7424832 C59.1920067,11.8026058 59.2496585,11.8701409 59.3130756,11.9310871 C59.3246059,11.9442647 59.3369599,11.9574422 59.3484903,11.9706198 C59.455558,12.0991011 59.4407333,12.0776875 59.3056632,11.9063792 C59.3509611,11.9244983 59.455558,12.1328686 59.480266,12.1732249 C59.5082683,12.2209936 59.6392203,12.4021851 59.6285136,12.4573662 C59.6285136,12.455719 59.5082683,12.0925123 59.5939225,12.388184 C59.6293372,12.5100765 59.6540451,12.8156313 59.7298161,12.9169338 C59.6095708,12.7555086 59.7051082,12.6591477 59.7166386,12.8946967 C59.7199329,12.9548193 59.7207565,13.0034116 59.7215801,13.0668287 C59.7215801,13.090713 59.7215801,13.1145973 59.7215801,13.1384817 C59.7298161,14.8943924 59.7215801,16.6503032 59.7215801,18.4053904 C59.7215801,19.8466868 60.1539691,21.2542156 61.2460599,22.2565343 C61.8868191,22.8445832 62.6865327,23.2399102 63.433536,23.6714755 C64.3452589,24.1977546 65.2569818,24.7240337 66.1687047,25.2511364 C66.4330796,25.403502 66.6974546,25.555044 66.9610059,25.7082332 C67.0548961,25.7634143 67.1463154,25.8235369 67.2402056,25.878718 C67.55482,26.0615567 67.0367769,25.6579937 67.2863271,25.9157799 C67.3382138,25.9693137 67.3958656,26.0170824 67.4477523,26.0706163 C67.5095221,26.1332097 67.7854274,26.3531104 67.4930502,26.093677 C67.5679976,26.1603885 67.6248258,26.282281 67.6750653,26.3662879 C67.7178924,26.437941 67.7508363,26.5425379 67.8043702,26.6051313 C67.9320279,26.7542026 67.702244,26.2674562 67.7969578,26.585365 C67.8208421,26.6660776 67.9863853,27.0589338 67.9369694,27.1075261 C67.9435582,27.1017609 67.9155559,26.7723217 67.9246155,27.0194011 C67.9287335,27.128116 67.9369694,27.2360073 67.9353222,27.3455459 C67.9344986,27.4188461 67.9270863,27.4904991 67.9246155,27.5637993 C67.9064963,27.7375785 67.9106143,27.7095762 67.9361458,27.4797923 C67.9229683,27.552269 67.9073199,27.6247456 67.8883772,27.6963986 C67.870258,27.7688752 67.8455501,27.838881 67.8257837,27.910534 C67.7302464,28.2580924 67.941911,27.7103998 67.8348433,27.910534 C67.7878982,27.998659 67.7450711,28.0884312 67.6964788,28.1757326 C67.6585933,28.2432676 67.6190606,28.309979 67.5795279,28.3775141 C67.1207839,29.1714625 66.6628635,29.9654109 66.2041194,30.7593593 C65.7840845,31.4865962 65.3624023,32.2130096 64.9440146,32.9418938 C64.0380569,34.5157894 63.9878174,36.3450004 64.8665964,37.9411332 C65.2561582,38.6494274 66.2905972,38.9393339 66.9791251,38.4954146 C67.6973024,38.0325525 67.950147,37.140596 67.5334065,36.3828859 C67.5078749,36.3359408 67.3423317,35.9406138 67.458459,36.2634642 C67.4288095,36.1794572 67.39916,36.0954502 67.3744521,36.009796 C67.3373902,35.8821384 67.3093878,35.7528335 67.2879743,35.6218814 C67.3398609,35.9406138 67.3003282,35.7075356 67.3036226,35.6383534 C67.3102114,35.5106957 67.3143294,35.3706841 67.3118586,35.2430264 C67.3184474,35.5189317 67.2863271,35.3583301 67.3118586,35.2611455 C67.3456261,35.1318407 67.3769229,35.004183 67.4139848,34.8757017 C67.5218761,34.5009646 67.2756203,35.0939551 67.4683422,34.7496912 C67.5795279,34.5503805 67.6940081,34.3535406 67.8076646,34.1567007 C68.3224133,33.2647442 68.837162,32.3736112 69.3519107,31.4816547 C69.6887622,30.8977237 70.035497,30.3179108 70.3641125,29.7290383 C71.385374,27.8965329 71.1539429,25.6958792 69.8114783,24.0964521 C69.220135,23.3914522 68.3924191,22.9738881 67.6100011,22.5225564 C66.6743938,21.9822762 65.7387866,21.4419959 64.8031793,20.9017157 C64.4852705,20.7180534 64.1673617,20.534391 63.8494529,20.3507287 C63.7992135,20.3219028 63.7481504,20.2930768 63.6979109,20.2634273 C63.6204927,20.2173058 63.2449321,19.9026914 63.5150722,20.155536 C63.4425956,20.0871774 63.3668246,20.0229367 63.2976423,19.9512837 C63.2268129,19.8788071 63.0077359,19.5436027 63.197987,19.8540992 C63.0942136,19.684438 62.9986763,19.516424 62.9023153,19.3426448 C63.0522101,19.6152558 62.9492604,19.4703025 62.9261997,19.3813539 C62.8957265,19.2668738 62.8627826,19.1507465 62.8298387,19.03709 C62.7491261,18.7595375 62.8125432,19.0461496 62.8257207,19.0922711 C62.7936004,18.9852033 62.8076016,18.8394265 62.8059544,18.7282408 C62.8059544,18.7101216 62.8059544,18.6920025 62.8059544,18.6738833 C62.8043072,18.3765645 62.8059544,18.0792456 62.8059544,17.7819268 C62.8059544,16.732663 62.8059544,15.6825757 62.8059544,14.6333119 C62.8059544,13.789124 62.8520759,12.9342294 62.7038282,12.0991011 C62.3735655,10.2418878 60.7708439,8.65316737 58.9202194,8.31549223 C58.0875619,8.16312661 57.2285492,8.21336608 56.3860085,8.21336608 C55.326038,8.21336608 54.2660675,8.21336608 53.206097,8.21336608 C52.9161905,8.21336608 52.626284,8.21583688 52.3372011,8.21336608 C52.3223764,8.21336608 52.306728,8.21336608 52.2919033,8.21336608 C52.1914243,8.21171889 52.1477736,8.2059537 52.0481183,8.20430651 C51.671734,8.19771772 52.2573122,8.27019434 52.0415295,8.20101211 C51.9476393,8.17136259 51.8471604,8.15736142 51.7524466,8.1285355 C51.7384455,8.12441751 51.3760624,7.98934745 51.6025518,8.08406121 C51.8290412,8.17795137 51.4806593,8.01652618 51.4666581,8.0091138 C51.3628848,7.95146194 51.2657002,7.88475051 51.1660449,7.82050987 C51.4740705,8.01817337 51.1726337,7.81968627 51.1108638,7.76203442 C51.053212,7.70767696 51.0013253,7.64590711 50.9436735,7.59237325 C50.6677682,7.33952868 51.0878031,7.84686501 50.8868452,7.52813261 C50.8431945,7.45895038 50.7995438,7.39141535 50.7575403,7.32223313 C50.7270672,7.27199365 50.6990649,7.22010699 50.6694154,7.16904391 C50.485753,6.85113512 50.3020907,6.53322632 50.1184283,6.21531752 C49.5781481,5.27971027 49.0378679,4.34410303 48.4975876,3.40849579 C48.0371964,2.611253 47.6105727,1.76294714 46.8808649,1.17160383 C45.2699074,-0.132151688 43.1161988,-0.363582705 41.2902822,0.65438433 C39.8028643,1.48374744 38.3385072,2.35840844 36.8634433,3.21000869 C36.6657798,3.3236652 36.4681163,3.43649812 36.2704528,3.54933104 C35.9196001,3.74946533 36.4343488,3.5246231 36.2078594,3.58145135 C36.1007917,3.60863009 35.9970183,3.65063358 35.889127,3.67698871 C35.8792438,3.67945951 35.4674449,3.73381697 35.7038175,3.71734501 C35.9476024,3.70087305 35.5152135,3.71569782 35.5143899,3.71569782 C35.5135663,3.71569782 35.0811774,3.70004946 35.3249624,3.71734501 C35.561335,3.73381697 35.1495361,3.67945951 35.1396529,3.67698871 C35.0317616,3.65063358 34.9279882,3.60780649 34.8209205,3.58145135 C34.7171471,3.54356585 34.7360899,3.55262543 34.8793959,3.60945368 C34.7978597,3.57074458 34.7171471,3.52874109 34.6389053,3.4834432 C34.0492092,3.15565123 33.4702199,2.8089165 32.886289,2.47124135 C32.0017448,1.96061064 31.1180242,1.44997992 30.23348,0.939349212 C29.2122186,0.349653098 28.1365997,-0.102502163 26.9226164,0.0202139277 C25.254007,0.188227904 23.8687153,1.09665642 23.0269982,2.54618876 C22.5781373,3.31954721 22.1325709,4.09537646 21.6853572,4.87038211 C21.2406143,5.64044617 20.7975186,6.41215742 20.3511285,7.18139788 C20.3239498,7.22834296 20.2975947,7.27528805 20.270416,7.32140953 C20.2284125,7.39141535 20.1847618,7.45895038 20.1411111,7.52730901 C19.9401532,7.84604141 20.3601881,7.33952868 20.0842828,7.59154965 C20.0258074,7.64508351 19.9739207,7.70685336 19.9170924,7.76121082 C19.8594406,7.81556828 19.8001415,7.86745495 19.7383717,7.91769443 C19.8800305,7.8106267 19.9047385,7.78838955 19.8133191,7.85263019 C19.7268413,7.89875168 19.6477759,7.96052152 19.5612981,8.0074666 C19.547297,8.01487898 19.1997386,8.17712777 19.4254045,8.08241401 C19.6527175,7.98770025 19.2895108,8.12277031 19.2755097,8.1268883 C19.1807959,8.15489063 19.0794934,8.16889179 18.9864268,8.19936492 C18.7706441,8.26854714 19.3562223,8.19524693 18.979838,8.20265931 C18.8793591,8.20430651 18.836532,8.21007169 18.736053,8.21171889 C18.7179339,8.21171889 18.7006383,8.21171889 18.6825192,8.21171889 C16.9076656,8.22324926 15.1319885,8.21171889 13.3563114,8.21171889 C11.9380757,8.21171889 10.5618436,8.65152018 9.56940812,9.70984351 C8.60250415,10.7401645 8.22117831,12.0208593 8.22117831,13.4069746 C8.22117831,15.1670034 8.24176826,16.9286793 8.22117831,18.6887081 C8.22117831,18.7010621 8.22117831,18.7142396 8.22117831,18.7265936 C8.21953112,18.8377793 8.23270868,18.9827325 8.20141196,19.0906239 C8.21458953,19.0445024 8.27883017,18.7578903 8.19729397,19.0354428 C8.16435006,19.1490993 8.13140614,19.2652266 8.10093302,19.3797067 C8.07787227,19.4678317 7.97492253,19.6136086 8.12481736,19.3409976 C8.0679891,19.444771 8.02022042,19.5526623 7.95845058,19.6539649 C7.91232909,19.7297359 7.69325204,20.0072884 7.92797745,19.7289123 C7.79784898,19.8837487 7.65866093,20.0163479 7.5120605,20.1547124 C7.78220062,19.9018678 7.40746356,20.2164822 7.32922176,20.2626037 C7.26992271,20.2980184 7.20980006,20.3317859 7.14967741,20.3663771 C6.34584584,20.8300627 5.54201426,21.2945719 4.73818269,21.7582576 C3.99941535,22.1848813 3.25900082,22.6090342 2.52188067,23.0381287 C1.04599319,23.893847 0.154036641,25.3310253 0.0132013957,27.0218719 C-0.0872775511,28.2284428 0.40029242,29.2834718 0.983399751,30.2932028 C1.50638443,31.1999842 2.03019271,32.1059419 2.5531774,33.0127232 C2.9081481,33.6271272 3.30265151,34.2324717 3.61314792,34.8707601 C3.5834984,34.8089903 3.52831734,34.6022672 3.60738274,34.8757017 C3.64444465,35.004183 3.67656496,35.1318407 3.70950888,35.2611455 C3.73504042,35.3591537 3.7029201,35.5189317 3.70950888,35.2430264 C3.70703809,35.3706841 3.71033248,35.5115193 3.71774486,35.6383534 C3.72103925,35.7075356 3.68150655,35.9406138 3.73339322,35.6218814 C3.71197968,35.7528335 3.68315375,35.8821384 3.64691544,36.009796 C3.6222075,36.0954502 3.59255798,36.1794572 3.56290845,36.2634642 C3.67821216,35.9397902 3.51349258,36.3367644 3.48713744,36.3828859 C3.38995289,36.5574887 3.28782674,36.728797 3.1881714,36.900929 C2.32668797,38.3924648 1.40755268,39.8634107 0.601250314,41.3854197 C-0.382125608,43.2418094 -0.0955135304,45.4902318 1.31860411,47.0418902 C1.9165362,47.6982978 2.74178132,48.103508 3.50031501,48.5416621 C4.42603908,49.0761771 5.35258674,49.6106922 6.27831081,50.1452072 C6.58468924,50.3222808 6.89189126,50.4985307 7.19826969,50.6764279 C7.24027318,50.7011358 7.28310028,50.7250202 7.32510377,50.7497281 C7.42970071,50.8123215 7.53100325,50.8773858 7.629835,50.9490388 C7.57794833,50.9111533 7.40993436,50.7447865 7.59524389,50.9358612 C7.67842728,51.0215154 7.76325787,51.1046988 7.84479406,51.1911766 C8.09352063,51.4539043 7.7105476,50.94245 7.88926835,51.2562408 C7.9477438,51.358367 8.00621925,51.4621403 8.0663419,51.5634428 C8.11411058,51.6433318 8.14211291,51.8146402 8.05398793,51.5189686 C8.06222391,51.5477945 8.25247503,52.0748972 8.21458953,52.0921927 C8.20800075,52.0345409 8.20141196,51.976889 8.19482318,51.9192372 C8.20388276,51.9999497 8.20964794,52.0798387 8.21294233,52.1613749 C8.21458953,52.200084 8.21458953,52.2462055 8.21541313,52.2849146 C8.21541313,52.308799 8.21541313,52.3326833 8.21541313,52.3565677 C8.21706032,52.6687113 8.21541313,52.9808549 8.21541313,53.2929985 C8.21541313,54.3702646 8.21541313,55.4475307 8.21541313,56.5239731 C8.21541313,57.3731026 8.16435006,58.2403512 8.34965959,59.0746559 C8.75569337,60.9013961 10.3625329,62.4234051 12.2106867,62.7133116 C13.0359318,62.8426164 13.8776489,62.7989657 14.7103064,62.7989657 C15.7760421,62.7989657 16.8417778,62.7989657 17.9075135,62.7989657 C18.1743592,62.7989657 18.4403814,62.7956713 18.7072271,62.7989657 C18.756643,62.7997893 18.803588,62.7989657 18.8538275,62.8014365 C18.8941838,62.8030837 19.080317,62.8006129 19.0959653,62.8195557 C19.0383135,62.8129669 18.9806616,62.8063781 18.9230097,62.7997893 C19.0012515,62.8146141 19.0794934,62.8319097 19.156088,62.851676 C19.2326826,62.8714424 19.30763,62.8977975 19.3842246,62.9200346 C19.7523729,63.0271024 19.1182025,62.7610802 19.4517596,62.948037 C19.5209418,62.9867461 19.5909477,63.0221608 19.6584827,63.0625171 C19.7260177,63.1028734 19.7919056,63.1465241 19.8569698,63.1918219 C19.702957,63.0674587 19.6922502,63.0600463 19.8240259,63.1704084 C19.9072093,63.2527682 20.2819463,63.6826863 20.0669873,63.3861911 C20.1394639,63.48667 20.2061753,63.5904433 20.2695924,63.6966875 C20.3074779,63.7592809 20.3428926,63.8235216 20.3791309,63.8869386 C20.5660876,64.2106126 20.7530443,64.5351102 20.9400011,64.8587841 C21.4794577,65.7935678 22.0189143,66.7275278 22.558371,67.6623115 C23.0862973,68.5773288 23.584574,69.4297526 24.4542934,70.0828658 C25.9845384,71.2317849 28.0896546,71.2762592 29.7368505,70.3563003 C30.3586669,70.0095656 30.9706002,69.6438881 31.5866514,69.2880938 C32.4588416,68.7848755 33.3302082,68.2816571 34.2023984,67.7784388 C34.4247699,67.6499575 34.6446705,67.5181818 34.8736308,67.4037017 C34.5705467,67.5552438 34.9502254,67.3864062 35.0054064,67.3707578 C35.0910606,67.3460499 35.1767148,67.3287543 35.2631926,67.3081644 C35.64946,67.2159214 34.9815221,67.2785149 35.3768491,67.2999284 C35.4616797,67.30487 35.557217,67.3015756 35.6404004,67.2999284 C36.0472578,67.292516 35.3570827,67.212627 35.7540569,67.3081644 C35.8405347,67.3287543 35.9270125,67.3468735 36.0118431,67.3715814 C36.0670241,67.3872298 36.4467028,67.5568909 36.1436188,67.4045253 C36.2251549,67.4457052 36.3058675,67.4868851 36.3857565,67.5313594 C37.8888228,68.3664877 39.3655338,69.2518555 40.8545989,70.1116917 C41.0481444,70.223701 41.2392191,70.3414755 41.4385298,70.4427781 C42.3749607,70.9204649 43.3739849,71.0909496 44.4125419,70.950938 C45.965024,70.7425677 47.2366592,69.7814289 48.0100177,68.4406115 C48.9036214,66.8922474 49.79146,65.3405889 50.6916525,63.7955192 C50.7320088,63.7255134 50.7715415,63.6555076 50.8143686,63.587149 C50.8571957,63.5187903 50.9033172,63.4520789 50.9502622,63.3870147 C50.7303616,63.6900987 50.9708522,63.3845439 51.0194445,63.335128 C51.0754491,63.2782997 51.1363954,63.2280603 51.1924,63.1720556 C51.3241757,63.0625171 51.3126453,63.0691059 51.1594561,63.1934691 C51.2236968,63.1481713 51.2904082,63.1053442 51.3579432,63.0641643 C51.4254782,63.023808 51.4963077,62.9883933 51.5646663,62.9496842 C51.8924583,62.7651982 51.2673474,63.0163956 51.6322013,62.9216818 C51.7087959,62.9019155 51.7837433,62.8739131 51.860338,62.8533232 C51.8990471,62.8442636 51.9377562,62.8343804 51.9764653,62.8253209 C52.151068,62.7932006 52.1329489,62.792377 51.9212842,62.8212029 C51.9748181,62.7561386 52.2704897,62.8014365 52.3800282,62.8014365 C53.2102149,62.7981421 54.0404017,62.8014365 54.8697648,62.8014365 C55.813608,62.8014365 56.7574512,62.8014365 57.7012944,62.8014365 C59.1327076,62.8014365 60.5542376,62.3253969 61.5227888,61.2250701 C62.4534545,60.1675704 62.8001892,58.9231139 62.8001892,57.5419402 C62.8001892,56.5569171 62.8001892,55.5727175 62.8001892,54.5876944 C62.8001892,53.8283371 62.790306,53.0689799 62.8001892,52.3096226 C62.8010128,52.2610303 62.8001892,52.2116144 62.80266,52.1630221 C62.8051308,52.1226658 62.806778,52.0823095 62.8092488,52.0419532 C62.8265443,51.8640561 62.8232499,51.8813516 62.8001892,52.0938399 C62.7927768,52.0905455 62.8446635,51.8904112 62.8520759,51.8607617 C62.882549,51.7446344 62.9261997,51.6350959 62.9607908,51.5214394 C62.8726658,51.8162874 62.9006681,51.6458026 62.9484368,51.5659136 C63.0085595,51.4646111 63.0670349,51.3608378 63.1255104,51.2587116 C63.3050547,50.9457444 62.9212581,51.4563751 63.1699847,51.1936474 C63.2515208,51.1079932 63.3396458,51.0248098 63.4195348,50.938332 C63.4697743,50.8839746 63.6468479,50.7670237 63.3849437,50.9515096 C63.4862463,50.8798566 63.5883724,50.8131451 63.6954401,50.7489045 C63.7629752,50.7085482 63.8321574,50.6698391 63.900516,50.6303064 C65.4431149,49.739997 66.9898318,48.8562765 68.5283128,47.9585547 C70.0157306,47.0904825 70.952985,45.5544724 71.0106369,43.8290347 C71.0501696,42.6537605 70.5708356,41.6547362 70.0042002,40.6721839 C69.1789551,39.2424179 68.35371,37.8134755 67.5284649,36.3837095 C67.1240783,35.6836513 66.1143472,35.3797436 65.4159362,35.8294281 C64.7142308,36.2832306 64.4342075,37.1924827 64.8665964,37.9411332 Z" id="Path"></path>
                </g>
            </g>
        </g>
    </g>
</svg>