<?xml version="1.0" encoding="UTF-8"?>
<svg width="71px" height="67px" viewBox="0 0 71 67" version="1.1" xmlns="http://www.w3.org/2000/svg" xmlns:xlink="http://www.w3.org/1999/xlink">
    <title>noun_growth_3732841</title>
    <g id="Page-1" stroke="none" stroke-width="1" fill="none" fill-rule="evenodd">
        <g id="icons" transform="translate(-286.000000, -585.000000)" fill="#3B1159" fill-rule="nonzero">
            <g id="noun_growth_3732841" transform="translate(286.000000, 585.000000)">
                <path d="M69.5800405,64.0962524 L1.41995948,64.0962524 C0.635174115,64.0962524 0,64.7321004 0,65.5163243 C0,66.3004358 0.635174115,66.9362838 1.41995948,66.9362838 L69.5800405,66.9362838 C70.3648259,66.9362838 71,66.3004358 71,65.5163243 C71,64.7321006 70.3648259,64.0962524 69.5800405,64.0962524 Z" id="Path"></path>
                <path d="M8.22188258,47.0652741 C7.43698476,47.0652741 6.80181065,47.7011221 6.80181065,48.4852336 L6.80181065,59.24478 C6.80181065,60.0290039 7.43698476,60.664852 8.22188258,60.664852 L15.5284629,60.664852 C16.3133607,60.664852 16.9485348,60.0290039 16.9485348,59.24478 L16.9485348,48.4852336 C16.9485348,47.7011221 16.3133607,47.0652741 15.5284629,47.0652741 L8.22188258,47.0652741 Z M14.1085034,57.8248206 L9.64184206,57.8248206 L9.64184206,49.9053055 L14.1085034,49.9053055 L14.1085034,57.8248206 Z" id="Shape"></path>
                <path d="M23.9721792,35.6040594 C23.1872814,35.6040594 22.5522197,36.2399075 22.5522197,37.0240189 L22.5522197,59.24478 C22.5522197,60.0290039 23.1872816,60.664852 23.9721792,60.664852 L31.278872,60.664852 C32.0636574,60.664852 32.6988315,60.0290039 32.6988315,59.24478 L32.6988315,37.0240191 C32.6988315,36.2399076 32.0636574,35.6040594 31.278872,35.6040594 L23.9721792,35.6040594 L23.9721792,35.6040594 Z M29.8588001,57.8248206 L25.3922511,57.8248206 L25.3922511,38.444091 L29.8588001,38.444091 L29.8588001,57.8248206 Z" id="Shape"></path>
                <path d="M39.7225883,25.4012872 C38.9376905,25.4012872 38.3025163,26.0371353 38.3025163,26.8212467 L38.3025163,59.24478 C38.3025163,60.0290039 38.9376905,60.664852 39.7225883,60.664852 L47.0291686,60.664852 C47.8140664,60.664852 48.4491281,60.0290039 48.4491281,59.24478 L48.4491281,26.8212467 C48.4491281,26.0371353 47.8140662,25.4012872 47.0291686,25.4012872 L39.7225883,25.4012872 Z M45.6092091,57.8248206 L41.1425477,57.8248206 L41.1425477,28.2413187 L45.6092091,28.2413187 L45.6092091,57.8248206 Z" id="Shape"></path>
                <path d="M55.4715371,60.664852 L62.7781174,60.664852 C63.5630152,60.664852 64.1981893,60.0290039 64.1981893,59.24478 L64.1981893,17.0587721 C64.1981893,16.2745481 63.5630152,15.6388126 62.7781174,15.6388126 L55.4715371,15.6388126 C54.6866393,15.6388126 54.0514652,16.2745483 54.0514652,17.0587721 L54.0514652,59.24478 C54.0514652,60.0290039 54.6866393,60.664852 55.4715371,60.664852 Z M56.8914966,18.4787315 L61.3581579,18.4787315 L61.3581579,57.8248206 L56.8914966,57.8248206 L56.8914966,18.4787315 Z" id="Shape"></path>
                <path d="M56.8166909,7.83150595 C56.6932504,8.60607013 57.2216074,9.33334743 57.9967334,9.45611402 C58.0716512,9.46790772 58.1464571,9.4734114 58.2200271,9.4734114 C58.9064195,9.4734114 59.5110424,8.97493173 59.6205553,8.27528544 L60.5275458,2.54816007 C60.5382162,2.48099228 60.5183354,2.41899121 60.5194587,2.35294652 C60.5217051,2.24231059 60.5297922,2.13358393 60.5057556,2.02384659 C60.483179,1.92051153 60.4329717,1.8312164 60.3887174,1.73675455 C60.3586154,1.67172072 60.3492928,1.60152035 60.308408,1.53996849 C60.3026797,1.5313198 60.2932448,1.52727619 60.2872918,1.5188522 C60.2224826,1.4256259 60.1331877,1.35565004 60.0477115,1.28005825 C59.9936852,1.2325465 59.9501046,1.17178098 59.8904624,1.13359201 C59.8302585,1.09495364 59.7561268,1.08046432 59.6897451,1.05103629 C59.5853991,1.00509705 59.4846474,0.952980218 59.3728881,0.933099478 C59.3635655,0.931414717 59.3567139,0.925124694 59.3473913,0.923664445 L53.6202659,0.0166739511 C52.8506438,-0.101824513 52.1170766,0.423724523 51.996444,1.19750254 C51.8730035,1.97195446 52.4013604,2.69934402 53.1764864,2.82199835 L55.3083353,3.15941002 L11.088197,32.561626 C10.4350516,32.9956335 10.2575846,33.8769027 10.6915923,34.5300481 C10.9662168,34.9412545 11.4168477,35.1637621 11.8759029,35.1637621 C12.146259,35.1637621 12.4194232,35.0868223 12.6608007,34.925979 L57.2166653,5.30046923 L56.8166909,7.83150595 Z" id="Path"></path>
            </g>
        </g>
    </g>
</svg>