<?xml version="1.0" encoding="UTF-8"?>
<svg width="71px" height="71px" viewBox="0 0 71 71" version="1.1" xmlns="http://www.w3.org/2000/svg" xmlns:xlink="http://www.w3.org/1999/xlink">
    <title>High quality</title>
    <g id="Page-1" stroke="none" stroke-width="1" fill="none" fill-rule="evenodd">
        <g id="icons" transform="translate(-533.000000, -583.000000)" fill="#3B1159">
            <g id="Group" transform="translate(533.000000, 583.000000)">
                <polygon id="Path" points="35.6065 0.00489655172 35.713 0.018362069 35.8182759 0.0416206897 35.9198793 0.0746724138 36.0190345 0.115068966 36.1145172 0.165258621 36.2051034 0.222793103 36.289569 0.288896552 36.3679138 0.36112069 36.4401379 0.440689655 48.6815172 15.1303448 48.7463966 15.2148103 48.803931 15.3053966 48.8528966 15.3996552 48.8932931 15.4988103 48.9251207 15.6004138 48.9471552 15.7056897 48.9606207 15.8109655 48.9655172 15.9174655 48.9606207 16.0251897 48.945931 16.1304655 48.9226724 16.2345172 48.8908448 16.3361207 48.8492241 16.4352759 48.7990345 16.5295345 48.7415 16.6188966 48.6766207 16.7033621 48.6043966 16.782931 48.5248276 16.853931 48.4403621 16.9188103 48.3497759 16.9763448 48.2555172 17.0253103 48.1563621 17.0657069 48.0547586 17.0975345 47.9494828 17.119569 47.8442069 17.1330345 47.7377069 17.137931 47.6299828 17.1330345 47.5247069 17.1183448 47.4206552 17.0950862 47.3190517 17.0632586 47.2198966 17.0216379 47.1256379 16.9714483 47.0362759 16.9139138 46.9518103 16.8490345 46.8722414 16.7768103 46.8012414 16.6972414 35.5 3.13624138 24.1987586 16.6972414 24.1277586 16.7768103 24.0481897 16.8490345 23.9637241 16.9139138 23.8743621 16.9714483 23.7801034 17.0216379 23.6809483 17.0632586 23.5793448 17.0950862 23.4752931 17.1183448 23.3700172 17.1330345 23.2622931 17.137931 23.1557931 17.1330345 23.0505172 17.119569 22.9452414 17.0975345 22.8436379 17.0657069 22.7444828 17.0253103 22.6502241 16.9763448 22.5596379 16.9188103 22.4751724 16.853931 22.3956034 16.782931 22.3233793 16.7033621 22.2585 16.6188966 22.2009655 16.5295345 22.1507759 16.4352759 22.1091552 16.3361207 22.0773276 16.2345172 22.054069 16.1304655 22.0393793 16.0251897 22.0344828 15.9174655 22.0393793 15.8109655 22.0528448 15.7056897 22.0748793 15.6004138 22.1067069 15.4988103 22.1471034 15.3996552 22.196069 15.3053966 22.2536034 15.2148103 22.3184828 15.1303448 34.5598621 0.440689655 34.6320862 0.36112069 34.710431 0.288896552 34.7948966 0.222793103 34.8854828 0.165258621 34.9809655 0.115068966 35.0801207 0.0746724138 35.1817241 0.0416206897 35.287 0.018362069 35.3935 0.00489655172 35.5 0"></polygon>
                <polygon id="Path" points="12.3442069 0.00489655172 12.4470345 0.017137931 12.5474138 0.0391724138 12.646569 0.0685517241 12.7420517 0.107724138 12.8350862 0.153017241 12.922 0.20687931 13.0052414 0.268086207 13.0835862 0.335413793 13.1558103 0.410086207 13.2206897 0.489655172 24.237931 15.1793103 24.2954655 15.2625517 24.3456552 15.3506897 24.3885 15.4425 24.4227759 15.5367586 24.450931 15.6346897 24.4692931 15.7338448 24.4803103 15.8342241 24.4827586 15.9358276 24.4766379 16.0362069 24.4619483 16.1365862 24.4399138 16.2357414 24.4093103 16.3324483 24.3701379 16.4254828 24.3248448 16.516069 24.2709828 16.6017586 24.211 16.6825517 24.1436724 16.7584483 24.0714483 16.8294483 23.9931034 16.8931034 23.9098621 16.9506379 23.8217241 17.0008276 23.7299138 17.0436724 23.6356552 17.0779483 23.5377241 17.1061034 23.438569 17.1244655 23.3381897 17.1354828 23.2365862 17.137931 23.1362069 17.1318103 23.0358276 17.1171207 22.9366724 17.0950862 22.8399655 17.0644828 22.746931 17.0253103 22.6563448 16.9800172 22.5706552 16.9261552 22.4898621 16.8661724 22.4139655 16.7988448 22.3429655 16.7266207 22.2793103 16.6482759 12.2413793 3.26477586 2.20344828 16.6482759 2.1397931 16.7266207 2.0687931 16.7988448 1.99289655 16.8661724 1.91210345 16.9261552 1.82641379 16.9800172 1.73582759 17.0253103 1.6427931 17.0644828 1.54608621 17.0950862 1.44693103 17.1171207 1.34655172 17.1318103 1.24617241 17.137931 1.14456897 17.1354828 1.04418966 17.1244655 0.945034483 17.1061034 0.847103448 17.0779483 0.752844828 17.0436724 0.661034483 17.0008276 0.572896552 16.9506379 0.489655172 16.8931034 0.411310345 16.8294483 0.339086207 16.7584483 0.271758621 16.6825517 0.211775862 16.6017586 0.157913793 16.516069 0.11262069 16.4254828 0.0734482759 16.3324483 0.0428448276 16.2357414 0.0208103448 16.1365862 0.00612068966 16.0362069 0 15.9358276 0.00244827586 15.8342241 0.0134655172 15.7338448 0.0318275862 15.6346897 0.0599827586 15.5367586 0.0942586207 15.4425 0.137103448 15.3506897 0.187293103 15.2625517 0.244827586 15.1793103 11.262069 0.489655172 11.3269483 0.410086207 11.3991724 0.335413793 11.4775172 0.268086207 11.5607586 0.20687931 11.6476724 0.153017241 11.7407069 0.107724138 11.8361897 0.0685517241 11.9353448 0.0391724138 12.0357241 0.017137931 12.1385517 0.00489655172 12.2413793 0"></polygon>
                <polygon id="Path" points="58.8614483 0.00489655172 58.9642759 0.017137931 59.0646552 0.0391724138 59.1638103 0.0685517241 59.2592931 0.107724138 59.3523276 0.153017241 59.4392414 0.20687931 59.5224828 0.268086207 59.6008276 0.335413793 59.6730517 0.410086207 59.737931 0.489655172 70.7551724 15.1793103 70.8127069 15.2625517 70.8628966 15.3506897 70.9057414 15.4425 70.9400172 15.5367586 70.9681724 15.6346897 70.9865345 15.7338448 70.9975517 15.8342241 71 15.9358276 70.9938793 16.0362069 70.9791897 16.1365862 70.9571552 16.2357414 70.9265517 16.3324483 70.8873793 16.4254828 70.8420862 16.516069 70.7882241 16.6017586 70.7282414 16.6825517 70.6609138 16.7584483 70.5886897 16.8294483 70.5103448 16.8931034 70.4271034 16.9506379 70.3389655 17.0008276 70.2471552 17.0436724 70.1528966 17.0779483 70.0549655 17.1061034 69.9558103 17.1244655 69.855431 17.1354828 69.7538276 17.137931 69.6534483 17.1318103 69.553069 17.1171207 69.4539138 17.0950862 69.3572069 17.0644828 69.2641724 17.0253103 69.1735862 16.9800172 69.0878966 16.9261552 69.0071034 16.8661724 68.9312069 16.7988448 68.8602069 16.7266207 68.7965517 16.6482759 58.7586207 3.26477586 48.7206897 16.6482759 48.6570345 16.7266207 48.5860345 16.7988448 48.5101379 16.8661724 48.4293448 16.9261552 48.3436552 16.9800172 48.253069 17.0253103 48.1600345 17.0644828 48.0633276 17.0950862 47.9641724 17.1171207 47.8637931 17.1318103 47.7634138 17.137931 47.6618103 17.1354828 47.561431 17.1244655 47.4622759 17.1061034 47.3643448 17.0779483 47.2700862 17.0436724 47.1782759 17.0008276 47.0901379 16.9506379 47.0068966 16.8931034 46.9285517 16.8294483 46.8563276 16.7584483 46.789 16.6825517 46.7290172 16.6017586 46.6751552 16.516069 46.6298621 16.4254828 46.5906897 16.3324483 46.5600862 16.2357414 46.5380517 16.1365862 46.5233621 16.0362069 46.5172414 15.9358276 46.5196897 15.8342241 46.5307069 15.7338448 46.549069 15.6346897 46.5772241 15.5367586 46.6115 15.4425 46.6543448 15.3506897 46.7045345 15.2625517 46.762069 15.1793103 57.7793103 0.489655172 57.8441897 0.410086207 57.9164138 0.335413793 57.9947586 0.268086207 58.078 0.20687931 58.1649138 0.153017241 58.2579483 0.107724138 58.353431 0.0685517241 58.4525862 0.0391724138 58.5529655 0.017137931 58.6557931 0.00489655172 58.7586207 0"></polygon>
                <path d="M56.4523448,36.7253621 L56.5943448,36.7278103 L56.7351207,36.7327069 L56.8758966,36.7388276 L57.0166724,36.7461724 L57.1562241,36.7559655 L57.2957759,36.7682069 L57.4353276,36.7804483 L57.5736552,36.7963621 L57.7119828,36.8122759 L57.8490862,36.8306379 L57.9861897,36.8514483 L58.122069,36.8734828 L58.2579483,36.8967414 L58.3938276,36.9212241 L58.5284828,36.9481552 L58.6631379,36.9763103 L58.796569,37.0069138 L58.93,37.0375172 L59.0622069,37.0717931 L59.1931897,37.106069 L59.3241724,37.1427931 L59.4551552,37.1807414 L59.5849138,37.2199138 L59.7146724,37.2615345 L59.8419828,37.3031552 L59.9705172,37.3484483 L60.0978276,37.3937414 L60.2239138,37.4402586 L60.3487759,37.4892241 L60.4736379,37.5394138 L60.5985,37.5908276 L60.7209138,37.6446897 L60.8433276,37.6985517 L60.9657414,37.7548621 L61.0857069,37.8123966 L61.2056724,37.8711552 L61.3256379,37.9311379 L61.4443793,37.9923448 L61.5618966,38.056 L61.6781897,38.1196552 L61.7932586,38.1857586 L61.9083276,38.2530862 L62.0221724,38.3204138 L62.1360172,38.3901897 L62.2474138,38.4611897 L62.3588103,38.5334138 L62.4702069,38.6080862 L62.5791552,38.6827586 L62.6868793,38.7586552 L62.7946034,38.8357759 L62.9011034,38.9141207 L63.0063793,38.9949138 L63.1116552,39.0757069 L63.2144828,39.1577241 L63.3173103,39.2421897 L63.4189138,39.3266552 L63.5192931,39.4123448 L63.6184483,39.4992586 L63.7163793,39.5873966 L63.8143103,39.6767586 L63.9097931,39.7673448 L64.0052759,39.8591552 L64.0995345,39.9521897 L64.192569,40.0464483 L64.2843793,40.141931 L64.3749655,40.2374138 L64.4643276,40.3353448 L64.5524655,40.4332759 L64.6393793,40.532431 L64.725069,40.6328103 L64.8095345,40.7344138 L64.894,40.8372414 L64.9760172,40.940069 L65.0568103,41.0453448 L65.1376034,41.1506207 L65.2159483,41.2571207 L65.293069,41.3648448 L65.3689655,41.472569 L65.4436379,41.5815172 L65.5183103,41.6929138 L65.5905345,41.8043103 L65.6615345,41.9157069 L65.7313103,42.0295517 L65.7998621,42.1433966 L65.8659655,42.2584655 L65.932069,42.3735345 L65.9957241,42.4898276 L66.0593793,42.608569 L66.1205862,42.7260862 L66.180569,42.8460517 L66.2393276,42.9660172 L66.2968621,43.0859828 L66.3531724,43.2083966 L66.4070345,43.3308103 L66.4608966,43.4532241 L66.5123103,43.5780862 L66.5625,43.7029483 L66.6114655,43.8278103 L66.6579828,43.9538966 L66.7032759,44.0812069 L66.748569,44.2097414 L66.7901897,44.3370517 L66.8318103,44.4668103 L66.8709828,44.596569 L66.908931,44.7275517 L66.9456552,44.8585345 L66.979931,44.9895172 L67.0142069,45.1217241 L67.0448103,45.2551552 L67.0754138,45.3885862 L67.103569,45.5232414 L67.1305,45.6578966 L67.1549828,45.7937759 L67.1782414,45.9296552 L67.2002759,46.0655345 L67.2210862,46.2026379 L67.2394483,46.3397414 L67.2553621,46.478069 L67.2712759,46.6163966 L67.2835172,46.7559483 L67.2957586,46.8955 L67.3055517,47.0350517 L67.3128966,47.1758276 L67.3190172,47.3166034 L67.3239138,47.4573793 L67.3263621,47.5993793 L67.3275862,47.7413793 L67.3263621,47.8833793 L67.3239138,48.0253793 L67.3190172,48.1661552 L67.3128966,48.306931 L67.3055517,48.4477069 L67.2957586,48.5872586 L67.2835172,48.7268103 L67.2712759,48.8663621 L67.2553621,49.0046897 L67.2394483,49.1430172 L67.2210862,49.2801207 L67.2002759,49.4172241 L67.1782414,49.5531034 L67.1549828,49.6889828 L67.1305,49.8248621 L67.103569,49.9595172 L67.0754138,50.0941724 L67.0448103,50.2276034 L67.0142069,50.3610345 L66.979931,50.4932414 L66.9456552,50.6242241 L66.908931,50.7552069 L66.8709828,50.8861897 L66.8318103,51.0159483 L66.7901897,51.1457069 L66.748569,51.2730172 L66.7032759,51.4015517 L66.6579828,51.5288621 L66.6114655,51.6549483 L66.5625,51.7798103 L66.5123103,51.9046724 L66.4608966,52.0295345 L66.4070345,52.1519483 L66.3531724,52.2743621 L66.2968621,52.3967759 L66.2393276,52.5167414 L66.180569,52.6367069 L66.1205862,52.7566724 L66.0593793,52.8741897 L65.9957241,52.992931 L65.932069,53.1092241 L65.8659655,53.2242931 L65.7998621,53.3393621 L65.7313103,53.4532069 L65.6615345,53.5670517 L65.5905345,53.6784483 L65.5183103,53.7898448 L65.4436379,53.9012414 L65.3689655,54.0101897 L65.293069,54.1179138 L65.2159483,54.2256379 L65.1376034,54.3321379 L65.0568103,54.4374138 L64.9760172,54.5426897 L64.894,54.6455172 L64.8095345,54.7483448 L64.725069,54.8499483 L64.6393793,54.9503276 L64.5524655,55.0494828 L64.4643276,55.1474138 L64.3749655,55.2453448 L64.2843793,55.3408276 L64.192569,55.4363103 L64.0995345,55.530569 L64.0052759,55.6236034 L63.9097931,55.7154138 L63.8143103,55.806 L63.7163793,55.8953621 L63.6184483,55.9835 L63.5192931,56.0704138 L63.4189138,56.1561034 L63.3173103,56.240569 L63.2144828,56.3250345 L63.1116552,56.4070517 L63.0063793,56.4878448 L62.9011034,56.5686379 L62.7946034,56.6469828 L62.6868793,56.7241034 L62.5791552,56.8 L62.4702069,56.8746724 L62.3588103,56.9493448 L62.2474138,57.021569 L62.1360172,57.092569 L62.0221724,57.1623448 L61.9083276,57.2296724 L61.7932586,57.297 L61.6781897,57.3631034 L61.5618966,57.4267586 L61.4443793,57.4904138 L61.3256379,57.5516207 L61.2056724,57.6116034 L61.0857069,57.6703621 L60.9657414,57.7278966 L60.8433276,57.7842069 L60.7209138,57.838069 L60.5985,57.891931 L60.4736379,57.9433448 L60.3487759,57.9935345 L60.2239138,58.0425 L60.0978276,58.0890172 L59.9705172,58.1343103 L59.8419828,58.1796034 L59.7146724,58.2212241 L59.5849138,58.2628448 L59.4551552,58.3020172 L59.3241724,58.3399655 L59.1931897,58.3766897 L59.0622069,58.4109655 L58.93,58.4452414 L58.796569,58.4758448 L58.6631379,58.5064483 L58.5284828,58.5346034 L58.3938276,58.5615345 L58.2579483,58.5860172 L58.122069,58.6092759 L57.9861897,58.6313103 L57.8490862,58.6521207 L57.7119828,58.6704828 L57.5736552,58.6863966 L57.4353276,58.7023103 L57.2957759,58.7145517 L57.1562241,58.7267931 L57.0166724,58.7365862 L56.8758966,58.743931 L56.7351207,58.7500517 L56.5943448,58.7549483 L56.4523448,58.7573966 L56.3103448,58.7586207 L56.1683448,58.7573966 L56.0263448,58.7549483 L55.885569,58.7500517 L55.7447931,58.743931 L55.6040172,58.7365862 L55.4644655,58.7267931 L55.3249138,58.7145517 L55.1853621,58.7023103 L55.0470345,58.6863966 L54.9087069,58.6704828 L54.7716034,58.6521207 L54.6345,58.6313103 L54.4986207,58.6092759 L54.3627414,58.5860172 L54.2268621,58.5615345 L54.0922069,58.5346034 L53.9575517,58.5064483 L53.8241207,58.4758448 L53.6906897,58.4452414 L53.5584828,58.4109655 L53.4275,58.3766897 L53.2965172,58.3399655 L53.1655345,58.3020172 L53.0357759,58.2628448 L52.9060172,58.2212241 L52.7787069,58.1796034 L52.6501724,58.1343103 L52.5228621,58.0890172 L52.3967759,58.0425 L52.2719138,57.9935345 L52.1470517,57.9433448 L52.0221897,57.891931 L51.8997759,57.838069 L51.7773621,57.7842069 L51.6549483,57.7278966 L51.5349828,57.6703621 L51.4150172,57.6116034 L51.2950517,57.5516207 L51.1763103,57.4904138 L51.0587931,57.4267586 L50.9425,57.3631034 L50.827431,57.297 L50.7123621,57.2308966 L50.5985172,57.1623448 L50.4846724,57.092569 L50.3732759,57.021569 L50.2618793,56.9493448 L50.1504828,56.8746724 L50.0415345,56.8 L49.9338103,56.7241034 L49.8260862,56.6469828 L49.7195862,56.5686379 L49.6143103,56.4878448 L49.5090345,56.4070517 L49.4062069,56.3250345 L49.3033793,56.240569 L49.2017759,56.1561034 L49.1013966,56.0704138 L49.0022414,55.9835 L48.9043103,55.8953621 L48.8063793,55.806 L48.7108966,55.7154138 L48.6154138,55.6236034 L48.5211552,55.530569 L48.4281207,55.4363103 L48.3363103,55.3408276 L48.2457241,55.2453448 L48.1563621,55.1474138 L48.0682241,55.0494828 L47.9813103,54.9503276 L47.8956207,54.8499483 L47.8111552,54.7483448 L47.7266897,54.6455172 L47.6446724,54.5426897 L47.5638793,54.4374138 L47.4830862,54.3321379 L47.4047414,54.2256379 L47.3276207,54.1179138 L47.2517241,54.0101897 L47.1770517,53.9012414 L47.1023793,53.7898448 L47.0301552,53.6784483 L46.9591552,53.5670517 L46.8893793,53.4532069 L46.8208276,53.3393621 L46.7547241,53.2242931 L46.6886207,53.1092241 L46.6249655,52.992931 L46.5613103,52.8754138 L46.5001034,52.7566724 L46.4401207,52.6367069 L46.3813621,52.5167414 L46.3238276,52.3967759 L46.2675172,52.2743621 L46.2136552,52.1519483 L46.1597931,52.0295345 L46.1083793,51.9046724 L46.0581897,51.7798103 L46.0092241,51.6549483 L45.9627069,51.5288621 L45.9174138,51.4015517 L45.8721207,51.2730172 L45.8305,51.1457069 L45.7888793,51.0159483 L45.7497069,50.8861897 L45.7117586,50.7552069 L45.6750345,50.6242241 L45.6407586,50.4932414 L45.6064828,50.3610345 L45.5758793,50.2276034 L45.5452759,50.0941724 L45.5171207,49.9595172 L45.4901897,49.8248621 L45.4657069,49.6889828 L45.4424483,49.5531034 L45.4204138,49.4172241 L45.3996034,49.2801207 L45.3812414,49.1430172 L45.3653276,49.0046897 L45.3494138,48.8663621 L45.3371724,48.7268103 L45.324931,48.5872586 L45.3151379,48.4477069 L45.3077931,48.306931 L45.3016724,48.1661552 L45.2967759,48.0253793 L45.2943276,47.8833793 L45.2931034,47.7413793 L45.2943276,47.5993793 L45.2967759,47.4573793 L45.3016724,47.3166034 L45.3077931,47.1758276 L45.3151379,47.0350517 L45.324931,46.8955 L45.3371724,46.7559483 L45.3494138,46.6163966 L45.3653276,46.478069 L45.3812414,46.3397414 L45.3996034,46.2026379 L45.4204138,46.0655345 L45.4424483,45.9296552 L45.4657069,45.7937759 L45.4901897,45.6578966 L45.5171207,45.5232414 L45.5452759,45.3885862 L45.5758793,45.2551552 L45.6064828,45.1217241 L45.6407586,44.9895172 L45.6750345,44.8585345 L45.7117586,44.7275517 L45.7497069,44.596569 L45.7888793,44.4668103 L45.8305,44.3370517 L45.8721207,44.2097414 L45.9174138,44.0812069 L45.9627069,43.9538966 L46.0092241,43.8278103 L46.0581897,43.7029483 L46.1083793,43.5780862 L46.1597931,43.4532241 L46.2136552,43.3308103 L46.2675172,43.2083966 L46.3238276,43.0859828 L46.3813621,42.9660172 L46.4401207,42.8460517 L46.5001034,42.7260862 L46.5613103,42.6073448 L46.6249655,42.4898276 L46.6886207,42.3735345 L46.7547241,42.2584655 L46.8208276,42.1433966 L46.8893793,42.0295517 L46.9591552,41.9157069 L47.0301552,41.8043103 L47.1023793,41.6929138 L47.1770517,41.5815172 L47.2517241,41.472569 L47.3276207,41.3648448 L47.4047414,41.2571207 L47.4830862,41.1506207 L47.5638793,41.0453448 L47.6446724,40.940069 L47.7266897,40.8372414 L47.8111552,40.7344138 L47.8956207,40.6328103 L47.9813103,40.532431 L48.0682241,40.4332759 L48.1563621,40.3353448 L48.2457241,40.2374138 L48.3363103,40.141931 L48.4281207,40.0464483 L48.5211552,39.9521897 L48.6154138,39.8591552 L48.7108966,39.7673448 L48.8063793,39.6767586 L48.9043103,39.5873966 L49.0022414,39.4992586 L49.1013966,39.4123448 L49.2017759,39.3266552 L49.3033793,39.2421897 L49.4062069,39.1577241 L49.5090345,39.0757069 L49.6143103,38.9949138 L49.7195862,38.9141207 L49.8260862,38.8357759 L49.9338103,38.7586552 L50.0415345,38.6827586 L50.1504828,38.6080862 L50.2618793,38.5334138 L50.3732759,38.4611897 L50.4846724,38.3901897 L50.5985172,38.3204138 L50.7123621,38.2518621 L50.827431,38.1857586 L50.9425,38.1196552 L51.0587931,38.056 L51.1763103,37.9923448 L51.2950517,37.9311379 L51.4150172,37.8711552 L51.5349828,37.8123966 L51.6549483,37.7548621 L51.7773621,37.6985517 L51.8997759,37.6446897 L52.0221897,37.5908276 L52.1470517,37.5394138 L52.2719138,37.4892241 L52.3967759,37.4402586 L52.5228621,37.3937414 L52.6501724,37.3484483 L52.7787069,37.3031552 L52.9060172,37.2615345 L53.0357759,37.2199138 L53.1655345,37.1807414 L53.2965172,37.1427931 L53.4275,37.106069 L53.5584828,37.0717931 L53.6906897,37.0375172 L53.8241207,37.0069138 L53.9575517,36.9763103 L54.0922069,36.9481552 L54.2268621,36.9212241 L54.3627414,36.8967414 L54.4986207,36.8734828 L54.6345,36.8514483 L54.7716034,36.8306379 L54.9087069,36.8122759 L55.0470345,36.7963621 L55.1853621,36.7804483 L55.3249138,36.7682069 L55.4644655,36.7559655 L55.6040172,36.7461724 L55.7447931,36.7388276 L55.885569,36.7327069 L56.0263448,36.7278103 L56.1683448,36.7253621 L56.3103448,36.7241379 L56.4523448,36.7253621 Z M56.1989483,39.1736379 L56.0887759,39.1748621 L55.9786034,39.1785345 L55.868431,39.183431 L55.7594828,39.1895517 L55.6505345,39.1968966 L55.5415862,39.2066897 L55.4338621,39.2164828 L55.3261379,39.2287241 L55.2184138,39.2409655 L55.1119138,39.2556552 L55.0054138,39.271569 L54.8989138,39.2887069 L54.7936379,39.3058448 L54.6883621,39.325431 L54.5830862,39.3462414 L54.4790345,39.3682759 L54.3749828,39.3915345 L54.2721552,39.4160172 L54.1693276,39.4417241 L54.0677241,39.4698793 L53.9648966,39.4980345 L53.8645172,39.5274138 L53.7629138,39.5580172 L53.6637586,39.5898448 L53.5633793,39.6228966 L53.4642241,39.6571724 L53.3662931,39.6926724 L53.2683621,39.7293966 L53.170431,39.7661207 L53.0737241,39.8052931 L52.9770172,39.8456897 L52.8815345,39.8873103 L52.7860517,39.928931 L52.6917931,39.973 L52.5975345,40.017069 L52.5045,40.0623621 L52.4114655,40.1101034 L52.3196552,40.1578448 L52.229069,40.2068103 L52.1372586,40.257 L52.0478966,40.3071897 L51.9585345,40.3598276 L51.8691724,40.4124655 L51.7822586,40.4675517 L51.6941207,40.5226379 L51.608431,40.5789483 L51.5215172,40.6364828 L51.4370517,40.6940172 L51.3525862,40.754 L51.2693448,40.8139828 L51.1861034,40.8751897 L51.1040862,40.9376207 L51.022069,41.0000517 L50.9412759,41.064931 L50.8617069,41.1298103 L50.7833621,41.1959138 L50.7050172,41.2632414 L50.6266724,41.330569 L50.5507759,41.3991207 L50.4748793,41.4688966 L50.4002069,41.5398966 L50.3255345,41.6108966 L50.2520862,41.6831207 L50.1798621,41.756569 L50.1088621,41.8312414 L50.0378621,41.9059138 L49.9680862,41.9818103 L49.8995345,42.0577069 L49.8322069,42.1360517 L49.7648793,42.2143966 L49.6987759,42.2927414 L49.6338966,42.3723103 L49.5690172,42.4531034 L49.5065862,42.5351207 L49.4441552,42.6171379 L49.3829483,42.7003793 L49.3229655,42.7836207 L49.2629828,42.8680862 L49.2054483,42.9525517 L49.1479138,43.0394655 L49.0916034,43.1251552 L49.0365172,43.2132931 L48.981431,43.3002069 L48.9287931,43.389569 L48.8761552,43.478931 L48.8259655,43.5682931 L48.7757759,43.6601034 L48.7268103,43.7506897 L48.679069,43.8425 L48.6313276,43.9355345 L48.5860345,44.028569 L48.5419655,44.1228276 L48.4978966,44.2170862 L48.4562759,44.312569 L48.4146552,44.4080517 L48.3742586,44.5047586 L48.3350862,44.6014655 L48.2983621,44.6993966 L48.2616379,44.7973276 L48.2261379,44.8952586 L48.1918621,44.9944138 L48.1588103,45.0947931 L48.1269828,45.1939483 L48.0963793,45.2955517 L48.067,45.395931 L48.0388448,45.4987586 L48.0106897,45.6003621 L47.9849828,45.7031897 L47.9605,45.8060172 L47.9372414,45.910069 L47.9152069,46.0141207 L47.8943966,46.1193966 L47.8748103,46.2246724 L47.8576724,46.3299483 L47.8405345,46.4364483 L47.8246207,46.5429483 L47.809931,46.6494483 L47.7976897,46.7571724 L47.7854483,46.8648966 L47.7756552,46.9726207 L47.7658621,47.081569 L47.7585172,47.1905172 L47.7523966,47.2994655 L47.7475,47.4096379 L47.7438276,47.5198103 L47.7426034,47.6299828 L47.7413793,47.7413793 L47.7426034,47.8527759 L47.7438276,47.9629483 L47.7475,48.0731207 L47.7523966,48.1832931 L47.7585172,48.2922414 L47.7658621,48.4011897 L47.7756552,48.5101379 L47.7854483,48.6178621 L47.7976897,48.7255862 L47.809931,48.8333103 L47.8246207,48.9398103 L47.8405345,49.0463103 L47.8576724,49.1528103 L47.8748103,49.2580862 L47.8943966,49.3633621 L47.9152069,49.4686379 L47.9372414,49.5726897 L47.9605,49.6767414 L47.9849828,49.779569 L48.0106897,49.8823966 L48.0388448,49.984 L48.067,50.0868276 L48.0963793,50.1872069 L48.1269828,50.2888103 L48.1588103,50.3879655 L48.1918621,50.4883448 L48.2261379,50.5875 L48.2616379,50.685431 L48.2983621,50.7833621 L48.3350862,50.8812931 L48.3742586,50.978 L48.4146552,51.0747069 L48.4562759,51.1701897 L48.4978966,51.2656724 L48.5419655,51.359931 L48.5860345,51.4541897 L48.6313276,51.5472241 L48.679069,51.6402586 L48.7268103,51.732069 L48.7757759,51.8226552 L48.8259655,51.9144655 L48.8761552,52.0038276 L48.9287931,52.0931897 L48.981431,52.1825517 L49.0365172,52.2694655 L49.0916034,52.3576034 L49.1479138,52.4432931 L49.2054483,52.5302069 L49.2629828,52.6146724 L49.3229655,52.6991379 L49.3829483,52.7823793 L49.4441552,52.8656207 L49.5065862,52.9476379 L49.5690172,53.0296552 L49.6338966,53.1104483 L49.6987759,53.1900172 L49.7648793,53.2683621 L49.8322069,53.3467069 L49.8995345,53.4250517 L49.9680862,53.5009483 L50.0378621,53.5768448 L50.1088621,53.6515172 L50.1798621,53.7261897 L50.2520862,53.7996379 L50.3255345,53.8718621 L50.4002069,53.9428621 L50.4748793,54.0138621 L50.5507759,54.0836379 L50.6266724,54.1521897 L50.7050172,54.2195172 L50.7833621,54.2868448 L50.8617069,54.3529483 L50.9412759,54.4178276 L51.022069,54.4827069 L51.1040862,54.5451379 L51.1861034,54.607569 L51.2693448,54.6687759 L51.3525862,54.7287586 L51.4370517,54.7887414 L51.5215172,54.8462759 L51.608431,54.9038103 L51.6941207,54.9601207 L51.7822586,55.0152069 L51.8691724,55.0702931 L51.9585345,55.122931 L52.0478966,55.175569 L52.1372586,55.2257586 L52.229069,55.2759483 L52.3196552,55.3249138 L52.4114655,55.3726552 L52.5045,55.4203966 L52.5975345,55.4656897 L52.6917931,55.5097586 L52.7860517,55.5538276 L52.8815345,55.5954483 L52.9770172,55.637069 L53.0737241,55.6774655 L53.170431,55.7166379 L53.2683621,55.7533621 L53.3662931,55.7900862 L53.4642241,55.8255862 L53.5633793,55.8598621 L53.6637586,55.8929138 L53.7629138,55.9247414 L53.8645172,55.9553448 L53.9648966,55.9847241 L54.0677241,56.0128793 L54.1693276,56.0410345 L54.2721552,56.0667414 L54.3749828,56.0912241 L54.4790345,56.1144828 L54.5830862,56.1365172 L54.6883621,56.1573276 L54.7936379,56.1769138 L54.8989138,56.1940517 L55.0054138,56.2111897 L55.1119138,56.2271034 L55.2184138,56.2417931 L55.3261379,56.2540345 L55.4338621,56.2662759 L55.5415862,56.276069 L55.6505345,56.2858621 L55.7594828,56.2932069 L55.868431,56.2993276 L55.9786034,56.3042241 L56.0887759,56.3078966 L56.1989483,56.3091207 L56.3103448,56.3103448 L56.4217414,56.3091207 L56.5319138,56.3078966 L56.6420862,56.3042241 L56.7522586,56.2993276 L56.8612069,56.2932069 L56.9701552,56.2858621 L57.0791034,56.276069 L57.1868276,56.2662759 L57.2945517,56.2540345 L57.4022759,56.2417931 L57.5087759,56.2271034 L57.6152759,56.2111897 L57.7217759,56.1940517 L57.8270517,56.1769138 L57.9323276,56.1573276 L58.0376034,56.1365172 L58.1416552,56.1144828 L58.2457069,56.0912241 L58.3485345,56.0667414 L58.4513621,56.0410345 L58.5529655,56.0128793 L58.6557931,55.9847241 L58.7561724,55.9553448 L58.8577759,55.9247414 L58.956931,55.8929138 L59.0573103,55.8598621 L59.1564655,55.8255862 L59.2543966,55.7900862 L59.3523276,55.7533621 L59.4502586,55.7166379 L59.5469655,55.6774655 L59.6436724,55.637069 L59.7391552,55.5954483 L59.8346379,55.5538276 L59.9288966,55.5097586 L60.0231552,55.4656897 L60.1161897,55.4203966 L60.2092241,55.3726552 L60.3010345,55.3249138 L60.3916207,55.2759483 L60.483431,55.2257586 L60.5727931,55.175569 L60.6621552,55.122931 L60.7515172,55.0702931 L60.838431,55.0152069 L60.926569,54.9601207 L61.0122586,54.9038103 L61.0991724,54.8462759 L61.1836379,54.7887414 L61.2681034,54.7287586 L61.3513448,54.6687759 L61.4345862,54.607569 L61.5166034,54.5451379 L61.5986207,54.4827069 L61.6794138,54.4178276 L61.7589828,54.3529483 L61.8373276,54.2868448 L61.9156724,54.2195172 L61.9940172,54.1521897 L62.0699138,54.0836379 L62.1458103,54.0138621 L62.2204828,53.9428621 L62.2951552,53.8718621 L62.3686034,53.7996379 L62.4408276,53.7261897 L62.5118276,53.6515172 L62.5828276,53.5768448 L62.6526034,53.5009483 L62.7211552,53.4250517 L62.7884828,53.3467069 L62.8558103,53.2683621 L62.9219138,53.1900172 L62.9867931,53.1104483 L63.0516724,53.0296552 L63.1141034,52.9476379 L63.1765345,52.8656207 L63.2377414,52.7823793 L63.2977241,52.6991379 L63.3577069,52.6146724 L63.4152414,52.5302069 L63.4727759,52.4432931 L63.5290862,52.3576034 L63.5841724,52.2694655 L63.6392586,52.1825517 L63.6918966,52.0931897 L63.7445345,52.0038276 L63.7947241,51.9144655 L63.8449138,51.8226552 L63.8938793,51.732069 L63.9416207,51.6402586 L63.9893621,51.5472241 L64.0346552,51.4541897 L64.0787241,51.359931 L64.1227931,51.2656724 L64.1644138,51.1701897 L64.2060345,51.0747069 L64.246431,50.978 L64.2856034,50.8812931 L64.3223276,50.7833621 L64.3590517,50.685431 L64.3945517,50.5875 L64.4288276,50.4883448 L64.4618793,50.3879655 L64.4937069,50.2888103 L64.5243103,50.1872069 L64.5536897,50.0868276 L64.5818448,49.984 L64.61,49.8823966 L64.6357069,49.779569 L64.6601897,49.6767414 L64.6834483,49.5726897 L64.7054828,49.4686379 L64.7262931,49.3633621 L64.7458793,49.2580862 L64.7630172,49.1528103 L64.7801552,49.0463103 L64.796069,48.9398103 L64.8107586,48.8333103 L64.823,48.7255862 L64.8352414,48.6178621 L64.8450345,48.5101379 L64.8548276,48.4011897 L64.8621724,48.2922414 L64.8682931,48.1832931 L64.8731897,48.0731207 L64.8768621,47.9629483 L64.8780862,47.8527759 L64.8793103,47.7413793 L64.8780862,47.6299828 L64.8768621,47.5198103 L64.8731897,47.4096379 L64.8682931,47.2994655 L64.8621724,47.1905172 L64.8548276,47.081569 L64.8450345,46.9726207 L64.8352414,46.8648966 L64.823,46.7571724 L64.8107586,46.6494483 L64.796069,46.5429483 L64.7801552,46.4364483 L64.7630172,46.3299483 L64.7458793,46.2246724 L64.7262931,46.1193966 L64.7054828,46.0141207 L64.6834483,45.910069 L64.6601897,45.8060172 L64.6357069,45.7031897 L64.61,45.6003621 L64.5818448,45.4987586 L64.5536897,45.395931 L64.5243103,45.2955517 L64.4937069,45.1939483 L64.4618793,45.0947931 L64.4288276,44.9944138 L64.3945517,44.8952586 L64.3590517,44.7973276 L64.3223276,44.6993966 L64.2856034,44.6014655 L64.246431,44.5047586 L64.2060345,44.4080517 L64.1644138,44.312569 L64.1227931,44.2170862 L64.0787241,44.1228276 L64.0346552,44.028569 L63.9893621,43.9355345 L63.9416207,43.8425 L63.8938793,43.7506897 L63.8449138,43.6601034 L63.7947241,43.5682931 L63.7445345,43.478931 L63.6918966,43.389569 L63.6392586,43.3002069 L63.5841724,43.2132931 L63.5290862,43.1251552 L63.4727759,43.0394655 L63.4152414,42.9525517 L63.3577069,42.8680862 L63.2977241,42.7836207 L63.2377414,42.7003793 L63.1765345,42.6171379 L63.1141034,42.5351207 L63.0516724,42.4531034 L62.9867931,42.3723103 L62.9219138,42.2927414 L62.8558103,42.2143966 L62.7884828,42.1360517 L62.7211552,42.0577069 L62.6526034,41.9818103 L62.5828276,41.9059138 L62.5118276,41.8312414 L62.4408276,41.756569 L62.3686034,41.6831207 L62.2951552,41.6108966 L62.2204828,41.5398966 L62.1458103,41.4688966 L62.0699138,41.3991207 L61.9940172,41.330569 L61.9156724,41.2632414 L61.8373276,41.1959138 L61.7589828,41.1298103 L61.6794138,41.064931 L61.5986207,41.0000517 L61.5166034,40.9376207 L61.4345862,40.8751897 L61.3513448,40.8139828 L61.2681034,40.754 L61.1836379,40.6940172 L61.0991724,40.6364828 L61.0122586,40.5789483 L60.926569,40.5226379 L60.838431,40.4675517 L60.7515172,40.4124655 L60.6621552,40.3598276 L60.5727931,40.3071897 L60.483431,40.257 L60.3916207,40.2068103 L60.3010345,40.1578448 L60.2092241,40.1101034 L60.1161897,40.0623621 L60.0231552,40.017069 L59.9288966,39.973 L59.8346379,39.928931 L59.7391552,39.8873103 L59.6436724,39.8456897 L59.5469655,39.8052931 L59.4502586,39.7661207 L59.3523276,39.7293966 L59.2543966,39.6926724 L59.1564655,39.6571724 L59.0573103,39.6228966 L58.956931,39.5898448 L58.8577759,39.5580172 L58.7561724,39.5274138 L58.6557931,39.4980345 L58.5529655,39.4698793 L58.4513621,39.4417241 L58.3485345,39.4160172 L58.2457069,39.3915345 L58.1416552,39.3682759 L58.0376034,39.3462414 L57.9323276,39.325431 L57.8270517,39.3058448 L57.7217759,39.2887069 L57.6152759,39.271569 L57.5087759,39.2556552 L57.4022759,39.2409655 L57.2945517,39.2287241 L57.1868276,39.2164828 L57.0791034,39.2066897 L56.9701552,39.1968966 L56.8612069,39.1895517 L56.7522586,39.183431 L56.6420862,39.1785345 L56.5319138,39.1748621 L56.4217414,39.1736379 L56.3103448,39.1724138 L56.1989483,39.1736379 Z" id="Shape"></path>
                <path d="M56.4682586,41.6231379 L56.6237241,41.6280345 L56.7804138,41.6378276 L56.9346552,41.6525172 L57.0876724,41.6696552 L57.2406897,41.6916897 L57.3924828,41.7161724 L57.5418276,41.7455517 L57.6911724,41.7773793 L57.8392931,41.8141034 L57.9849655,41.8532759 L58.1294138,41.8961207 L58.2726379,41.9426379 L58.4146379,41.9928276 L58.5541897,42.0454655 L58.6925172,42.103 L58.8296207,42.1617586 L58.9642759,42.2254138 L59.0964828,42.2915172 L59.2286897,42.360069 L59.3572241,42.4322931 L59.4845345,42.5081897 L59.6093966,42.5865345 L59.7330345,42.6673276 L59.8542241,42.750569 L59.9729655,42.8374828 L60.0892586,42.9268448 L60.2031034,43.0198793 L60.3157241,43.1141379 L60.4258966,43.212069 L60.5323966,43.3112241 L60.6376724,43.4140517 L60.7405,43.5193276 L60.8396552,43.6258276 L60.9375862,43.736 L61.0318448,43.8486207 L61.1248793,43.9624655 L61.2142414,44.0787586 L61.3011552,44.1975 L61.3843966,44.3186897 L61.4651897,44.4423276 L61.5435345,44.5671897 L61.619431,44.6945 L61.6916552,44.8230345 L61.7602069,44.9552414 L61.8263103,45.0874483 L61.8899655,45.2221034 L61.9487241,45.3592069 L62.0062586,45.4975345 L62.0588966,45.6370862 L62.1090862,45.7790862 L62.1556034,45.9223103 L62.1984483,46.0667586 L62.2376207,46.212431 L62.2743448,46.3605517 L62.3061724,46.5098966 L62.3355517,46.6592414 L62.3600345,46.8110345 L62.382069,46.9640517 L62.3992069,47.117069 L62.4138966,47.2713103 L62.4236897,47.428 L62.4285862,47.5834655 L62.4310345,47.7413793 L62.4285862,47.8992931 L62.4236897,48.0547586 L62.4138966,48.2114483 L62.3992069,48.3656897 L62.382069,48.5187069 L62.3600345,48.6717241 L62.3355517,48.8235172 L62.3061724,48.9728621 L62.2743448,49.1222069 L62.2376207,49.2703276 L62.1984483,49.416 L62.1556034,49.5604483 L62.1090862,49.7036724 L62.0588966,49.8456724 L62.0062586,49.9852241 L61.9487241,50.1235517 L61.8899655,50.2606552 L61.8263103,50.3953103 L61.7602069,50.5275172 L61.6916552,50.6597241 L61.619431,50.7882586 L61.5435345,50.915569 L61.4651897,51.040431 L61.3843966,51.164069 L61.3011552,51.2852586 L61.2142414,51.404 L61.1248793,51.5202931 L61.0318448,51.6341379 L60.9375862,51.7467586 L60.8396552,51.856931 L60.7405,51.963431 L60.6376724,52.0687069 L60.5323966,52.1715345 L60.4258966,52.2706897 L60.3157241,52.3686207 L60.2031034,52.4628793 L60.0892586,52.5559138 L59.9729655,52.6452759 L59.8542241,52.7321897 L59.7330345,52.815431 L59.6093966,52.8962241 L59.4845345,52.974569 L59.3572241,53.0504655 L59.2286897,53.1226897 L59.0964828,53.1912414 L58.9642759,53.2573448 L58.8296207,53.321 L58.6925172,53.3797586 L58.5541897,53.4372931 L58.4146379,53.489931 L58.2726379,53.5401207 L58.1294138,53.5866379 L57.9849655,53.6294828 L57.8392931,53.6686552 L57.6911724,53.7053793 L57.5418276,53.7372069 L57.3924828,53.7665862 L57.2406897,53.791069 L57.0876724,53.8131034 L56.9346552,53.8302414 L56.7804138,53.844931 L56.6237241,53.8547241 L56.4682586,53.8596207 L56.3103448,53.862069 L56.152431,53.8596207 L55.9969655,53.8547241 L55.8402759,53.844931 L55.6860345,53.8302414 L55.5330172,53.8131034 L55.38,53.791069 L55.2282069,53.7665862 L55.0788621,53.7372069 L54.9295172,53.7053793 L54.7813966,53.6686552 L54.6357241,53.6294828 L54.4912759,53.5866379 L54.3480517,53.5401207 L54.2060517,53.489931 L54.0665,53.4372931 L53.9281724,53.3797586 L53.791069,53.321 L53.6564138,53.2573448 L53.5242069,53.1912414 L53.392,53.1226897 L53.2634655,53.0504655 L53.1361552,52.974569 L53.0112931,52.8962241 L52.8876552,52.815431 L52.7664655,52.7321897 L52.6477241,52.6452759 L52.531431,52.5559138 L52.4175862,52.4628793 L52.3049655,52.3686207 L52.1947931,52.2706897 L52.0882931,52.1715345 L51.9830172,52.0687069 L51.8801897,51.963431 L51.7810345,51.856931 L51.6831034,51.7467586 L51.5888448,51.6341379 L51.4958103,51.5202931 L51.4064483,51.404 L51.3195345,51.2852586 L51.2362931,51.164069 L51.1555,51.040431 L51.0771552,50.915569 L51.0012586,50.7882586 L50.9290345,50.6597241 L50.8604828,50.5275172 L50.7943793,50.3953103 L50.7307241,50.2606552 L50.6719655,50.1235517 L50.614431,49.9852241 L50.5617931,49.8456724 L50.5116034,49.7036724 L50.4650862,49.5604483 L50.4222414,49.416 L50.383069,49.2703276 L50.3463448,49.1222069 L50.3145172,48.9728621 L50.2851379,48.8235172 L50.2606552,48.6717241 L50.2386207,48.5187069 L50.2214828,48.3656897 L50.2067931,48.2114483 L50.197,48.0547586 L50.1921034,47.8992931 L50.1896552,47.7413793 L50.1921034,47.5834655 L50.197,47.428 L50.2067931,47.2713103 L50.2214828,47.117069 L50.2386207,46.9640517 L50.2606552,46.8110345 L50.2851379,46.6592414 L50.3145172,46.5098966 L50.3463448,46.3605517 L50.383069,46.212431 L50.4222414,46.0667586 L50.4650862,45.9223103 L50.5116034,45.7790862 L50.5617931,45.6370862 L50.614431,45.4975345 L50.6719655,45.3592069 L50.7307241,45.2221034 L50.7943793,45.0874483 L50.8604828,44.9552414 L50.9290345,44.8230345 L51.0012586,44.6945 L51.0771552,44.5671897 L51.1555,44.4423276 L51.2362931,44.3186897 L51.3195345,44.1975 L51.4064483,44.0787586 L51.4958103,43.9624655 L51.5888448,43.8486207 L51.6831034,43.736 L51.7810345,43.6258276 L51.8801897,43.5193276 L51.9830172,43.4140517 L52.0882931,43.3112241 L52.1947931,43.212069 L52.3049655,43.1141379 L52.4175862,43.0198793 L52.531431,42.9268448 L52.6477241,42.8374828 L52.7664655,42.750569 L52.8876552,42.6673276 L53.0112931,42.5865345 L53.1361552,42.5081897 L53.2634655,42.4322931 L53.392,42.360069 L53.5242069,42.2915172 L53.6564138,42.2254138 L53.791069,42.1617586 L53.9281724,42.103 L54.0665,42.0454655 L54.2060517,41.9928276 L54.3480517,41.9426379 L54.4912759,41.8961207 L54.6357241,41.8532759 L54.7813966,41.8141034 L54.9295172,41.7773793 L55.0788621,41.7455517 L55.2282069,41.7161724 L55.38,41.6916897 L55.5330172,41.6696552 L55.6860345,41.6525172 L55.8402759,41.6378276 L55.9969655,41.6280345 L56.152431,41.6231379 L56.3103448,41.6206897 L56.4682586,41.6231379 Z M56.2148621,44.0701897 L56.1206034,44.0738621 L56.0263448,44.0799828 L55.9333103,44.0885517 L55.8415,44.0983448 L55.7496897,44.1118103 L55.6591034,44.1265 L55.5697414,44.1436379 L55.4803793,44.1632241 L55.3922414,44.1852586 L55.3053276,44.2085172 L55.2184138,44.2342241 L55.1327241,44.2623793 L55.0482586,44.2917586 L54.9650172,44.3235862 L54.8817759,44.3578621 L54.8009828,44.3933621 L54.7201897,44.4313103 L54.6406207,44.4704828 L54.5622759,44.5121034 L54.483931,44.5549483 L54.4080345,44.6002414 L54.3333621,44.6467586 L54.2586897,44.6957241 L54.1864655,44.7459138 L54.1142414,44.7985517 L54.0444655,44.8524138 L53.9759138,44.9075 L53.9085862,44.9650345 L53.8424828,45.0237931 L53.7776034,45.0837759 L53.7139483,45.1449828 L53.6527414,45.2086379 L53.5927586,45.2735172 L53.534,45.3396207 L53.4764655,45.4069483 L53.4213793,45.4755 L53.3675172,45.5452759 L53.3148793,45.6175 L53.2646897,45.6897241 L53.2157241,45.7643966 L53.1692069,45.839069 L53.1239138,45.9149655 L53.081069,45.9933103 L53.0394483,46.0716552 L53.0002759,46.1512241 L52.9623276,46.2320172 L52.9268276,46.3128103 L52.8925517,46.3960517 L52.8607241,46.4792931 L52.8313448,46.5637586 L52.8031897,46.6494483 L52.7774828,46.7363621 L52.7542241,46.8232759 L52.7321897,46.9114138 L52.7126034,47.0007759 L52.6954655,47.0901379 L52.6807759,47.1807241 L52.6673103,47.2725345 L52.6575172,47.3643448 L52.6489483,47.4573793 L52.6428276,47.5516379 L52.6391552,47.6458966 L52.637931,47.7413793 L52.6391552,47.8368621 L52.6428276,47.9311207 L52.6489483,48.0253793 L52.6575172,48.1184138 L52.6673103,48.2102241 L52.6807759,48.3020345 L52.6954655,48.3926207 L52.7126034,48.4819828 L52.7321897,48.5713448 L52.7542241,48.6594828 L52.7774828,48.7463966 L52.8031897,48.8333103 L52.8313448,48.919 L52.8607241,49.0034655 L52.8925517,49.0867069 L52.9268276,49.1699483 L52.9623276,49.2507414 L53.0002759,49.3315345 L53.0394483,49.4111034 L53.081069,49.4894483 L53.1239138,49.5677931 L53.1692069,49.6436897 L53.2157241,49.7183621 L53.2646897,49.7930345 L53.3148793,49.8652586 L53.3675172,49.9374828 L53.4213793,50.0072586 L53.4764655,50.0758103 L53.534,50.1431379 L53.5927586,50.2092414 L53.6527414,50.2741207 L53.7139483,50.3377759 L53.7776034,50.3989828 L53.8424828,50.4589655 L53.9085862,50.5177241 L53.9759138,50.5752586 L54.0444655,50.6303448 L54.1142414,50.6842069 L54.1864655,50.7368448 L54.2586897,50.7870345 L54.3333621,50.836 L54.4080345,50.8825172 L54.483931,50.9278103 L54.5622759,50.9706552 L54.6406207,51.0122759 L54.7201897,51.0514483 L54.8009828,51.0893966 L54.8817759,51.1248966 L54.9650172,51.1591724 L55.0482586,51.191 L55.1327241,51.2203793 L55.2184138,51.2485345 L55.3053276,51.2742414 L55.3922414,51.2975 L55.4803793,51.3195345 L55.5697414,51.3391207 L55.6591034,51.3562586 L55.7496897,51.3709483 L55.8415,51.3844138 L55.9333103,51.3942069 L56.0263448,51.4027759 L56.1206034,51.4088966 L56.2148621,51.412569 L56.3103448,51.4137931 L56.4058276,51.412569 L56.5000862,51.4088966 L56.5943448,51.4027759 L56.6873793,51.3942069 L56.7791897,51.3844138 L56.871,51.3709483 L56.9615862,51.3562586 L57.0509483,51.3391207 L57.1403103,51.3195345 L57.2284483,51.2975 L57.3153621,51.2742414 L57.4022759,51.2485345 L57.4879655,51.2203793 L57.572431,51.191 L57.6556724,51.1591724 L57.7389138,51.1248966 L57.8197069,51.0893966 L57.9005,51.0514483 L57.980069,51.0122759 L58.0584138,50.9706552 L58.1367586,50.9278103 L58.2126552,50.8825172 L58.2873276,50.836 L58.362,50.7870345 L58.4342241,50.7368448 L58.5064483,50.6842069 L58.5762241,50.6303448 L58.6447759,50.5752586 L58.7121034,50.5177241 L58.7782069,50.4589655 L58.8430862,50.3989828 L58.9067414,50.3377759 L58.9679483,50.2741207 L59.027931,50.2092414 L59.0866897,50.1431379 L59.1442241,50.0758103 L59.1993103,50.0072586 L59.2531724,49.9374828 L59.3058103,49.8652586 L59.356,49.7930345 L59.4049655,49.7183621 L59.4514828,49.6436897 L59.4967759,49.5677931 L59.5396207,49.4894483 L59.5812414,49.4111034 L59.6204138,49.3315345 L59.6583621,49.2507414 L59.6938621,49.1699483 L59.7281379,49.0867069 L59.7599655,49.0034655 L59.7893448,48.919 L59.8175,48.8333103 L59.8432069,48.7463966 L59.8664655,48.6594828 L59.8885,48.5713448 L59.9080862,48.4819828 L59.9252241,48.3926207 L59.9399138,48.3020345 L59.9533793,48.2102241 L59.9631724,48.1184138 L59.9717414,48.0253793 L59.9778621,47.9311207 L59.9815345,47.8368621 L59.9827586,47.7413793 L59.9815345,47.6458966 L59.9778621,47.5516379 L59.9717414,47.4573793 L59.9631724,47.3643448 L59.9533793,47.2725345 L59.9399138,47.1807241 L59.9252241,47.0901379 L59.9080862,47.0007759 L59.8885,46.9114138 L59.8664655,46.8232759 L59.8432069,46.7363621 L59.8175,46.6494483 L59.7893448,46.5637586 L59.7599655,46.4792931 L59.7281379,46.3960517 L59.6938621,46.3128103 L59.6583621,46.2320172 L59.6204138,46.1512241 L59.5812414,46.0716552 L59.5396207,45.9933103 L59.4967759,45.9149655 L59.4514828,45.839069 L59.4049655,45.7643966 L59.356,45.6897241 L59.3058103,45.6175 L59.2531724,45.5452759 L59.1993103,45.4755 L59.1442241,45.4069483 L59.0866897,45.3396207 L59.027931,45.2735172 L58.9679483,45.2086379 L58.9067414,45.1449828 L58.8430862,45.0837759 L58.7782069,45.0237931 L58.7121034,44.9650345 L58.6447759,44.9075 L58.5762241,44.8524138 L58.5064483,44.7985517 L58.4342241,44.7459138 L58.362,44.6957241 L58.2873276,44.6467586 L58.2126552,44.6002414 L58.1367586,44.5549483 L58.0584138,44.5121034 L57.980069,44.4704828 L57.9005,44.4313103 L57.8197069,44.3933621 L57.7389138,44.3578621 L57.6556724,44.3235862 L57.572431,44.2917586 L57.4879655,44.2623793 L57.4022759,44.2342241 L57.3153621,44.2085172 L57.2284483,44.1852586 L57.1403103,44.1632241 L57.0509483,44.1436379 L56.9615862,44.1265 L56.871,44.1118103 L56.7791897,44.0983448 L56.6873793,44.0885517 L56.5943448,44.0799828 L56.5000862,44.0738621 L56.4058276,44.0701897 L56.3103448,44.0689655 L56.2148621,44.0701897 Z" id="Shape"></path>
                <polygon id="Path" points="56.489069 63.6686379 56.5588448 63.6808793 56.6286207 63.6967931 56.6971724 63.7176034 56.7645 63.7433103 61.2068966 65.5195345 61.2068966 55.3861207 61.2093448 55.309 61.2166897 55.2331034 61.228931 55.1572069 61.2448448 55.0813103 61.2668793 55.0078621 61.2925862 54.9356379 61.3231897 54.8646379 61.3586897 54.7960862 61.3978621 54.7299828 61.4407069 54.6663276 61.4872241 54.6063448 61.5386379 54.5475862 61.5925 54.4937241 61.6512586 54.4423103 61.7112414 54.3957931 61.7748966 54.3529483 61.841 54.3137759 61.9095517 54.2782759 61.9805517 54.2476724 62.0527759 54.2219655 62.1262241 54.199931 62.2021207 54.1840172 62.2780172 54.1717759 62.3539138 54.164431 62.4310345 54.1619828 62.5081552 54.164431 62.5840517 54.1717759 62.6599483 54.1840172 62.7358448 54.199931 62.8092931 54.2219655 62.8815172 54.2476724 62.9525172 54.2782759 63.021069 54.3137759 63.0871724 54.3529483 63.1508276 54.3957931 63.2108103 54.4423103 63.269569 54.4937241 63.323431 54.5475862 63.3748448 54.6063448 63.4213621 54.6663276 63.4642069 54.7299828 63.5033793 54.7960862 63.5388793 54.8646379 63.5694828 54.9356379 63.5951897 55.0078621 63.6172241 55.0813103 63.6331379 55.1572069 63.6453793 55.2331034 63.6527241 55.309 63.6551724 55.3861207 63.6551724 67.3275862 63.6527241 67.4047069 63.6453793 67.4818276 63.6331379 67.5577241 63.616 67.6323966 63.5951897 67.707069 63.5694828 67.7792931 63.5376552 67.849069 63.5033793 67.9188448 63.4642069 67.9849483 63.4201379 68.0486034 63.3736207 68.1085862 63.3222069 68.1673448 63.2671207 68.2212069 63.2095862 68.2726207 63.1483793 68.3191379 63.0847241 68.3619828 63.0186207 68.4011552 62.950069 68.4366552 62.879069 68.4672586 62.8068448 68.4929655 62.7321724 68.5137759 62.6575 68.5309138 62.5816034 68.541931 62.5044828 68.5492759 62.4273621 68.5517241 62.3502414 68.5492759 62.2743448 68.541931 62.1984483 68.5296897 62.1225517 68.5125517 62.0491034 68.4905172 61.9768793 68.4635862 56.3103448 66.1977069 50.6438103 68.4635862 50.5715862 68.4905172 50.4981379 68.5125517 50.4222414 68.5296897 50.3463448 68.541931 50.2704483 68.5492759 50.1933276 68.5517241 50.1162069 68.5492759 50.0390862 68.541931 49.9631897 68.5309138 49.8885172 68.5137759 49.8138448 68.4929655 49.7416207 68.4672586 49.6706207 68.4366552 49.602069 68.4011552 49.5359655 68.3619828 49.4723103 68.3191379 49.4111034 68.2726207 49.353569 68.2212069 49.2984828 68.1673448 49.247069 68.1085862 49.2005517 68.0486034 49.1564828 67.9849483 49.1173103 67.9188448 49.0830345 67.849069 49.0512069 67.7792931 49.0255 67.707069 49.0046897 67.6323966 48.9875517 67.5577241 48.9753103 67.4818276 48.9679655 67.4047069 48.9655172 67.3275862 48.9655172 55.3861207 48.9679655 55.309 48.9753103 55.2331034 48.9875517 55.1572069 49.0034655 55.0813103 49.0255 55.0078621 49.0512069 54.9356379 49.0818103 54.8646379 49.1173103 54.7960862 49.1564828 54.7299828 49.1993276 54.6663276 49.2458448 54.6063448 49.2972586 54.5475862 49.3511207 54.4937241 49.4098793 54.4423103 49.4698621 54.3957931 49.5335172 54.3529483 49.5996207 54.3137759 49.6681724 54.2782759 49.7391724 54.2476724 49.8113966 54.2219655 49.8848448 54.199931 49.9607414 54.1840172 50.0366379 54.1717759 50.1125345 54.164431 50.1896552 54.1619828 50.2667759 54.164431 50.3426724 54.1717759 50.418569 54.1840172 50.4944655 54.199931 50.5679138 54.2219655 50.6401379 54.2476724 50.7111379 54.2782759 50.7796897 54.3137759 50.8457931 54.3529483 50.9094483 54.3957931 50.969431 54.4423103 51.0281897 54.4937241 51.0820517 54.5475862 51.1334655 54.6063448 51.1799828 54.6663276 51.2228276 54.7299828 51.262 54.7960862 51.2975 54.8646379 51.3281034 54.9356379 51.3538103 55.0078621 51.3758448 55.0813103 51.3917586 55.1572069 51.404 55.2331034 51.4113448 55.309 51.4137931 55.3861207 51.4137931 65.5195345 55.8561897 63.7433103 55.9235172 63.7176034 55.992069 63.6967931 56.0618448 63.6808793 56.1316207 63.6686379 56.2026207 63.660069 56.2748448 63.6551724 56.3458448 63.6551724 56.418069 63.660069"></polygon>
                <polygon id="Path" points="58.9067414 0.00856896552 59.0511897 0.0355 59.1931897 0.0795689655 59.3278448 0.140775862 59.453931 0.216672414 59.5702241 0.307258621 59.6755 0.412534483 59.7660862 0.528827586 59.8419828 0.654913793 59.9031897 0.789568966 59.9472586 0.931568966 59.9741897 1.07601724 59.9827586 1.22413793 59.9741897 1.37225862 59.9472586 1.5167069 59.9031897 1.6587069 59.8419828 1.79336207 59.7660862 1.91944828 59.6755 2.03574138 59.5702241 2.14101724 59.453931 2.23160345 59.3278448 2.3075 59.1931897 2.3687069 59.0511897 2.41277586 58.9067414 2.4397069 58.7586207 2.44827586 12.2413793 2.44827586 12.0932586 2.4397069 11.9488103 2.41277586 11.8068103 2.3687069 11.6721552 2.3075 11.546069 2.23160345 11.4297759 2.14101724 11.3245 2.03574138 11.2339138 1.91944828 11.1580172 1.79336207 11.0968103 1.6587069 11.0527414 1.5167069 11.0258103 1.37225862 11.0172414 1.22413793 11.0258103 1.07601724 11.0527414 0.931568966 11.0968103 0.789568966 11.1580172 0.654913793 11.2339138 0.528827586 11.3245 0.412534483 11.4297759 0.307258621 11.546069 0.216672414 11.6721552 0.140775862 11.8068103 0.0795689655 11.9488103 0.0355 12.0932586 0.00856896552 12.2413793 0 58.7586207 0"></polygon>
                <polygon id="Path" points="69.9496897 14.7018966 70.1198448 14.7386207 70.2838793 14.7998276 70.4368966 14.883069 70.5764483 14.9871207 70.7000862 15.1107586 70.8041379 15.2503103 70.8886034 15.4021034 70.9498103 15.5661379 70.9865345 15.7362931 71 15.9101207 70.9877586 16.0839483 70.9522586 16.2541034 70.8910517 16.4181379 70.8090345 16.5711552 56.7767414 38.6215517 56.6726897 38.7611034 56.5490517 38.8859655 56.4095 38.9912414 56.2564828 39.0757069 56.0936724 39.1369138 55.9235172 39.1748621 55.7484655 39.1883276 55.5746379 39.1760862 55.4044828 39.1405862 55.2404483 39.0793793 55.0862069 38.9973621 54.9466552 38.8933103 54.8217931 38.7696724 54.7165172 38.6301207 54.6320517 38.4771034 54.5708448 38.3142931 54.5328966 38.1441379 54.519431 37.9690862 54.5316724 37.7952586 54.5671724 37.6251034 54.6283793 37.461069 54.7103966 37.3068276 67.5454828 17.137931 3.45451724 17.137931 35.5 67.4952931 46.1793793 50.7135862 46.283431 50.5740345 46.407069 50.4491724 46.5466207 50.3438966 46.6996379 50.259431 46.8624483 50.1982241 47.0326034 50.1602759 47.2076552 50.1468103 47.3814828 50.1590517 47.5516379 50.1945517 47.7156724 50.2557586 47.8699138 50.3377759 48.0094655 50.4418276 48.1343276 50.5654655 48.2396034 50.7050172 48.324069 50.8580345 48.3852759 51.0208448 48.4232241 51.191 48.4366897 51.3660517 48.4244483 51.5398793 48.3889483 51.7100345 48.3277414 51.874069 48.2457241 52.0283103 36.5331724 70.4332241 36.4278966 70.574 36.3042586 70.6988621 36.1647069 70.8041379 36.0104655 70.8886034 35.846431 70.9498103 35.6750517 70.9877586 35.5 71 35.3249483 70.9877586 35.153569 70.9498103 34.9895345 70.8886034 34.8352931 70.8041379 34.6957414 70.6988621 34.5721034 70.574 34.4668276 70.4332241 0.190965517 16.5711552 0.108948276 16.4181379 0.0477413793 16.2541034 0.0122413793 16.0839483 0 15.9101207 0.0134655172 15.7362931 0.0501896552 15.5661379 0.111396552 15.4021034 0.195862069 15.2503103 0.299913793 15.1107586 0.423551724 14.9871207 0.563103448 14.883069 0.71612069 14.7998276 0.880155172 14.7386207 1.05031034 14.7018966 1.22413793 14.6896552 69.7758621 14.6896552"></polygon>
                <polygon id="Path" points="47.854 14.6945517 48.0131379 14.7202586 48.1661552 14.7655517 48.3118276 14.830431 48.448931 14.9148966 48.572569 15.0152759 48.6827414 15.131569 48.777 15.2613276 48.8541207 15.4021034 48.910431 15.5514483 48.9483793 15.7081379 48.9642931 15.8672759 48.9606207 16.0264138 48.9349138 16.1855517 36.6935345 70.0476207 36.6494655 70.1981897 36.5858103 70.3414138 36.5050172 70.476069 36.4070862 70.5984828 36.2944655 70.707431 36.1683793 70.8016897 36.0312759 70.8788103 35.8856034 70.937569 35.7338103 70.9779655 35.5783448 70.9975517 35.4216552 70.9975517 35.2661897 70.9779655 35.1143966 70.937569 34.9687241 70.8788103 34.8316207 70.8016897 34.7055345 70.707431 34.5929138 70.5984828 34.4949828 70.476069 34.4141897 70.3414138 34.3505345 70.1981897 34.3064655 70.0476207 22.0650862 16.1855517 22.0393793 16.0264138 22.0357069 15.8672759 22.0516207 15.7081379 22.089569 15.5514483 22.1458793 15.4021034 22.223 15.2613276 22.3172586 15.131569 22.427431 15.0152759 22.551069 14.9148966 22.6881724 14.830431 22.8338448 14.7655517 22.9868621 14.7202586 23.146 14.6945517 23.3051379 14.6908793 23.4642759 14.7067931 23.6209655 14.7447414 23.7703103 14.8010517 23.9110862 14.8781724 24.0408448 14.972431 24.1571379 15.0826034 24.2575172 15.2062414 24.3419828 15.3433448 24.4068621 15.4890172 24.4521552 15.6420345 35.5 64.2525517 46.5478448 15.6420345 46.5931379 15.4890172 46.6580172 15.3433448 46.7424828 15.2062414 46.8428621 15.0826034 46.9591552 14.972431 47.0889138 14.8781724 47.2296897 14.8010517 47.3790345 14.7447414 47.5357241 14.7067931 47.6948621 14.6908793"></polygon>
                <polygon id="Path" points="4.93327586 45.2931034 4.95775862 45.2943276 4.98224138 45.2955517 5.0055 45.298 5.02998276 45.3004483 5.05446552 45.3028966 5.07894828 45.306569 5.1022069 45.3102414 5.12668966 45.3151379 5.14994828 45.3200345 5.17443103 45.324931 5.19768966 45.3310517 5.22094828 45.3371724 5.2442069 45.3432931 5.26746552 45.3506379 5.29072414 45.3579828 5.31398276 45.3665517 5.33724138 45.3751207 5.35927586 45.3836897 5.38131034 45.3934828 5.40456897 45.4032759 5.42660345 45.413069 5.44741379 45.4240862 5.46944828 45.4351034 5.49148276 45.4473448 5.5122931 45.4595862 5.53310345 45.4718276 5.55391379 45.484069 5.57472414 45.4975345 5.59431034 45.511 5.61389655 45.5256897 5.63348276 45.5403793 5.65306897 45.555069 5.67143103 45.5697586 5.69101724 45.5856724 5.70937931 45.6015862 5.72651724 45.6175 5.74487931 45.6346379 5.76201724 45.6517759 6.98615517 46.8759138 7.0032931 46.8930517 7.02043103 46.9114138 7.03634483 46.9285517 7.05225862 46.9469138 7.06817241 46.9665 7.08286207 46.9848621 7.09755172 47.0044483 7.11224138 47.0240345 7.12693103 47.0436207 7.14039655 47.0632069 7.15386207 47.0840172 7.16610345 47.1048276 7.17834483 47.1256379 7.19058621 47.1464483 7.20282759 47.1684828 7.21384483 47.1905172 7.22486207 47.2113276 7.23465517 47.2333621 7.24444828 47.2566207 7.25424138 47.2786552 7.26281034 47.3006897 7.27137931 47.3239483 7.27994828 47.3472069 7.2872931 47.3704655 7.29463793 47.3937241 7.30075862 47.4169828 7.30687931 47.4402414 7.313 47.4635 7.31789655 47.4879828 7.3227931 47.5112414 7.32768966 47.5357241 7.33136207 47.5589828 7.33503448 47.5834655 7.33748276 47.6079483 7.33993103 47.632431 7.34237931 47.6556897 7.34360345 47.6801724 7.34482759 47.7046552 7.34482759 47.7291379 7.34482759 47.7536207 7.34482759 47.7781034 7.34360345 47.8025862 7.34237931 47.827069 7.33993103 47.8503276 7.33748276 47.8748103 7.33503448 47.8992931 7.33136207 47.9237759 7.32768966 47.9470345 7.3227931 47.9715172 7.31789655 47.9947759 7.313 48.0192586 7.30687931 48.0425172 7.30075862 48.0657759 7.29463793 48.0890345 7.2872931 48.1122931 7.27994828 48.1355517 7.27137931 48.1588103 7.26281034 48.182069 7.25424138 48.2041034 7.24444828 48.2261379 7.23465517 48.2493966 7.22486207 48.271431 7.21384483 48.2922414 7.20282759 48.3142759 7.19058621 48.3363103 7.17834483 48.3571207 7.16610345 48.377931 7.15386207 48.3987414 7.14039655 48.4195517 7.12693103 48.4391379 7.11224138 48.4587241 7.09755172 48.4783103 7.08286207 48.4978966 7.06817241 48.5162586 7.05225862 48.5358448 7.03634483 48.5542069 7.02043103 48.5713448 7.0032931 48.5897069 6.98615517 48.6068448 6.96901724 48.6239828 6.95065517 48.6411207 6.93351724 48.6570345 6.91515517 48.6729483 6.89556897 48.6888621 6.8772069 48.7035517 6.85762069 48.7182414 6.83803448 48.732931 6.81844828 48.7476207 6.79886207 48.7610862 6.77805172 48.7745517 6.75724138 48.7867931 6.73643103 48.7990345 6.71562069 48.8112759 6.69358621 48.8235172 6.67155172 48.8345345 6.65074138 48.8455517 6.6287069 48.8553448 6.60544828 48.8651379 6.58341379 48.874931 6.56137931 48.8835 6.53812069 48.892069 6.51486207 48.9006379 6.49160345 48.9079828 6.46834483 48.9153276 6.44508621 48.9214483 6.42182759 48.927569 6.39856897 48.9336897 6.37408621 48.9385862 6.35082759 48.9434828 6.32634483 48.9483793 6.30308621 48.9520517 6.27860345 48.9557241 6.25412069 48.9581724 6.22963793 48.9606207 6.20637931 48.963069 6.18189655 48.9642931 6.15741379 48.9655172 6.13293103 48.9655172 6.10844828 48.9655172 6.08396552 48.9655172 6.05948276 48.9642931 6.035 48.963069 6.01174138 48.9606207 5.98725862 48.9581724 5.96277586 48.9557241 5.9382931 48.9520517 5.91503448 48.9483793 5.89055172 48.9434828 5.8672931 48.9385862 5.84281034 48.9336897 5.81955172 48.927569 5.7962931 48.9214483 5.77303448 48.9153276 5.74977586 48.9079828 5.72651724 48.9006379 5.70325862 48.892069 5.68 48.8835 5.65796552 48.874931 5.63593103 48.8651379 5.61267241 48.8553448 5.59063793 48.8455517 5.56982759 48.8345345 5.5477931 48.8235172 5.52575862 48.8112759 5.50494828 48.7990345 5.48413793 48.7867931 5.46332759 48.7745517 5.44251724 48.7610862 5.42293103 48.7476207 5.40334483 48.732931 5.38375862 48.7182414 5.36417241 48.7035517 5.34581034 48.6888621 5.32622414 48.6729483 5.30786207 48.6570345 5.29072414 48.6411207 5.27236207 48.6239828 5.25522414 48.6068448 4.03108621 47.3827069 4.01394828 47.365569 3.99681034 47.3472069 3.98089655 47.330069 3.96498276 47.3117069 3.94906897 47.2921207 3.93437931 47.2737586 3.91968966 47.2541724 3.905 47.2345862 3.89031034 47.215 3.87684483 47.1954138 3.86337931 47.1746034 3.85113793 47.1537931 3.83889655 47.1329828 3.82665517 47.1121724 3.81441379 47.0901379 3.80339655 47.0681034 3.79237931 47.0472931 3.78258621 47.0252586 3.7727931 47.002 3.763 46.9799655 3.75443103 46.957931 3.74586207 46.9346724 3.7372931 46.9114138 3.72994828 46.8881552 3.72260345 46.8648966 3.71648276 46.8416379 3.71036207 46.8183793 3.70424138 46.7951207 3.69934483 46.7706379 3.69444828 46.7473793 3.68955172 46.7228966 3.68587931 46.6996379 3.6822069 46.6751552 3.67975862 46.6506724 3.67731034 46.6261897 3.67486207 46.602931 3.67363793 46.5784483 3.67241379 46.5539655 3.67241379 46.5294828 3.67241379 46.505 3.67241379 46.4805172 3.67363793 46.4560345 3.67486207 46.4315517 3.67731034 46.4082931 3.67975862 46.3838103 3.6822069 46.3593276 3.68587931 46.3348448 3.68955172 46.3115862 3.69444828 46.2871034 3.69934483 46.2638448 3.70424138 46.2393621 3.71036207 46.2161034 3.71648276 46.1928448 3.72260345 46.1695862 3.72994828 46.1463276 3.7372931 46.123069 3.74586207 46.0998103 3.75443103 46.0765517 3.763 46.0545172 3.7727931 46.0324828 3.78258621 46.0092241 3.79237931 45.9871897 3.80339655 45.9663793 3.81441379 45.9443448 3.82665517 45.9223103 3.83889655 45.9015 3.85113793 45.8806897 3.86337931 45.8598793 3.87684483 45.839069 3.89031034 45.8194828 3.905 45.7998966 3.91968966 45.7803103 3.93437931 45.7607241 3.94906897 45.7423621 3.96498276 45.7227759 3.98089655 45.7044138 3.99681034 45.6872759 4.01394828 45.6689138 4.03108621 45.6517759 4.04822414 45.6346379 4.06658621 45.6175 4.08372414 45.6015862 4.10208621 45.5856724 4.12167241 45.5697586 4.14003448 45.555069 4.15962069 45.5403793 4.1792069 45.5256897 4.1987931 45.511 4.21837931 45.4975345 4.23918966 45.484069 4.26 45.4718276 4.28081034 45.4595862 4.30162069 45.4473448 4.32365517 45.4351034 4.34568966 45.4240862 4.3665 45.413069 4.38853448 45.4032759 4.4117931 45.3934828 4.43382759 45.3836897 4.45586207 45.3751207 4.47912069 45.3665517 4.50237931 45.3579828 4.52563793 45.3506379 4.54889655 45.3432931 4.57215517 45.3371724 4.59541379 45.3310517 4.61867241 45.324931 4.64315517 45.3200345 4.66641379 45.3151379 4.69089655 45.3102414 4.71415517 45.306569 4.73863793 45.3028966 4.76312069 45.3004483 4.78760345 45.298 4.81086207 45.2955517 4.83534483 45.2943276 4.85982759 45.2931034 4.88431034 45.2931034 4.9087931 45.2931034"></polygon>
                <polygon id="Path" points="9.82982759 50.1896552 9.85431034 50.1908793 9.8787931 50.1921034 9.90205172 50.1945517 9.92653448 50.197 9.95101724 50.1994483 9.9755 50.2031207 9.99875862 50.2067931 10.0232414 50.2116897 10.0465 50.2165862 10.0709828 50.2214828 10.0942414 50.2276034 10.1175 50.2337241 10.1407586 50.2398448 10.1640172 50.2471897 10.1872759 50.2545345 10.2105345 50.2631034 10.2337931 50.2716724 10.2558276 50.2802414 10.2778621 50.2900345 10.3011207 50.2998276 10.3231552 50.3096207 10.3439655 50.3206379 10.366 50.3316552 10.3880345 50.3438966 10.4088448 50.3561379 10.4296552 50.3683793 10.4504655 50.3806207 10.4712759 50.3940862 10.4908621 50.4075517 10.5104483 50.4222414 10.5300345 50.436931 10.5496207 50.4516207 10.5679828 50.4663103 10.587569 50.4822241 10.605931 50.4981379 10.623069 50.5140517 10.641431 50.5311897 10.658569 50.5483276 11.8827069 51.7724655 11.8998448 51.7896034 11.9169828 51.8079655 11.9328966 51.8251034 11.9488103 51.8434655 11.9647241 51.8630517 11.9794138 51.8814138 11.9941034 51.901 12.0087931 51.9205862 12.0234828 51.9401724 12.0369483 51.9597586 12.0504138 51.980569 12.0626552 52.0013793 12.0748966 52.0221897 12.0871379 52.043 12.0993793 52.0650345 12.1103966 52.087069 12.1214138 52.1078793 12.1312069 52.1299138 12.141 52.1531724 12.1507931 52.1752069 12.1593621 52.1972414 12.167931 52.2205 12.1765 52.2437586 12.1838448 52.2670172 12.1911897 52.2902759 12.1973103 52.3135345 12.203431 52.3367931 12.2095517 52.3600517 12.2144483 52.3845345 12.2193448 52.4077931 12.2242414 52.4322759 12.2279138 52.4555345 12.2315862 52.4800172 12.2340345 52.5045 12.2364828 52.5289828 12.238931 52.5522414 12.2401552 52.5767241 12.2413793 52.6012069 12.2413793 52.6256897 12.2413793 52.6501724 12.2413793 52.6746552 12.2401552 52.6991379 12.238931 52.7236207 12.2364828 52.7468793 12.2340345 52.7713621 12.2315862 52.7958448 12.2279138 52.8203276 12.2242414 52.8435862 12.2193448 52.868069 12.2144483 52.8913276 12.2095517 52.9158103 12.203431 52.939069 12.1973103 52.9623276 12.1911897 52.9855862 12.1838448 53.0088448 12.1765 53.0321034 12.167931 53.0553621 12.1593621 53.0786207 12.1507931 53.1006552 12.141 53.1226897 12.1312069 53.1459483 12.1214138 53.1679828 12.1103966 53.1887931 12.0993793 53.2108276 12.0871379 53.2328621 12.0748966 53.2536724 12.0626552 53.2744828 12.0504138 53.2952931 12.0369483 53.3161034 12.0234828 53.3356897 12.0087931 53.3552759 11.9941034 53.3748621 11.9794138 53.3944483 11.9647241 53.4128103 11.9488103 53.4323966 11.9328966 53.4507586 11.9169828 53.4678966 11.8998448 53.4862586 11.8827069 53.5033966 11.865569 53.5205345 11.8472069 53.5376724 11.830069 53.5535862 11.8117069 53.5695 11.7921207 53.5854138 11.7737586 53.6001034 11.7541724 53.6147931 11.7345862 53.6294828 11.715 53.6441724 11.6954138 53.6576379 11.6746034 53.6711034 11.6537931 53.6833448 11.6329828 53.6955862 11.6121724 53.7078276 11.5901379 53.720069 11.5681034 53.7310862 11.5472931 53.7421034 11.5252586 53.7518966 11.502 53.7616897 11.4799655 53.7714828 11.457931 53.7800517 11.4346724 53.7886207 11.4114138 53.7971897 11.3881552 53.8045345 11.3648966 53.8118793 11.3416379 53.818 11.3183793 53.8241207 11.2951207 53.8302414 11.2706379 53.8351379 11.2473793 53.8400345 11.2228966 53.844931 11.1996379 53.8486034 11.1751552 53.8522759 11.1506724 53.8547241 11.1261897 53.8571724 11.102931 53.8596207 11.0784483 53.8608448 11.0539655 53.862069 11.0294828 53.862069 11.005 53.862069 10.9805172 53.862069 10.9560345 53.8608448 10.9315517 53.8596207 10.9082931 53.8571724 10.8838103 53.8547241 10.8593276 53.8522759 10.8348448 53.8486034 10.8115862 53.844931 10.7871034 53.8400345 10.7638448 53.8351379 10.7393621 53.8302414 10.7161034 53.8241207 10.6928448 53.818 10.6695862 53.8118793 10.6463276 53.8045345 10.623069 53.7971897 10.5998103 53.7886207 10.5765517 53.7800517 10.5545172 53.7714828 10.5324828 53.7616897 10.5092241 53.7518966 10.4871897 53.7421034 10.4663793 53.7310862 10.4443448 53.720069 10.4223103 53.7078276 10.4015 53.6955862 10.3806897 53.6833448 10.3598793 53.6711034 10.339069 53.6576379 10.3194828 53.6441724 10.2998966 53.6294828 10.2803103 53.6147931 10.2607241 53.6001034 10.2423621 53.5854138 10.2227759 53.5695 10.2044138 53.5535862 10.1872759 53.5376724 10.1689138 53.5205345 10.1517759 53.5033966 8.92763793 52.2792586 8.9105 52.2621207 8.89336207 52.2437586 8.87744828 52.2266207 8.86153448 52.2082586 8.84562069 52.1886724 8.83093103 52.1703103 8.81624138 52.1507241 8.80155172 52.1311379 8.78686207 52.1115517 8.77339655 52.0919655 8.75993103 52.0711552 8.74768966 52.0503448 8.73544828 52.0295345 8.7232069 52.0087241 8.71096552 51.9866897 8.69994828 51.9646552 8.68893103 51.9438448 8.67913793 51.9218103 8.66934483 51.8985517 8.65955172 51.8765172 8.65098276 51.8544828 8.64241379 51.8312241 8.63384483 51.8079655 8.6265 51.7847069 8.61915517 51.7614483 8.61303448 51.7381897 8.60691379 51.714931 8.6007931 51.6916724 8.59589655 51.6671897 8.591 51.643931 8.58610345 51.6194483 8.58243103 51.5961897 8.57875862 51.5717069 8.57631034 51.5472241 8.57386207 51.5227414 8.57141379 51.4994828 8.57018966 51.475 8.56896552 51.4505172 8.56896552 51.4260345 8.56896552 51.4015517 8.56896552 51.377069 8.57018966 51.3525862 8.57141379 51.3281034 8.57386207 51.3048448 8.57631034 51.2803621 8.57875862 51.2558793 8.58243103 51.2313966 8.58610345 51.2081379 8.591 51.1836552 8.59589655 51.1603966 8.6007931 51.1359138 8.60691379 51.1126552 8.61303448 51.0893966 8.61915517 51.0661379 8.6265 51.0428793 8.63384483 51.0196207 8.64241379 50.9963621 8.65098276 50.9731034 8.65955172 50.951069 8.66934483 50.9290345 8.67913793 50.9057759 8.68893103 50.8837414 8.69994828 50.862931 8.71096552 50.8408966 8.7232069 50.8188621 8.73544828 50.7980517 8.74768966 50.7772414 8.75993103 50.756431 8.77339655 50.7356207 8.78686207 50.7160345 8.80155172 50.6964483 8.81624138 50.6768621 8.83093103 50.6572759 8.84562069 50.6389138 8.86153448 50.6193276 8.87744828 50.6009655 8.89336207 50.5838276 8.9105 50.5654655 8.92763793 50.5483276 8.94477586 50.5311897 8.96313793 50.5140517 8.98027586 50.4981379 8.99863793 50.4822241 9.01822414 50.4663103 9.03658621 50.4516207 9.05617241 50.436931 9.07575862 50.4222414 9.09534483 50.4075517 9.11493103 50.3940862 9.13574138 50.3806207 9.15655172 50.3683793 9.17736207 50.3561379 9.19817241 50.3438966 9.2202069 50.3316552 9.24224138 50.3206379 9.26305172 50.3096207 9.28508621 50.2998276 9.30834483 50.2900345 9.33037931 50.2802414 9.35241379 50.2716724 9.37567241 50.2631034 9.39893103 50.2545345 9.42218966 50.2471897 9.44544828 50.2398448 9.4687069 50.2337241 9.49196552 50.2276034 9.51522414 50.2214828 9.5397069 50.2165862 9.56296552 50.2116897 9.58744828 50.2067931 9.6107069 50.2031207 9.63518966 50.1994483 9.65967241 50.197 9.68415517 50.1945517 9.70741379 50.1921034 9.73189655 50.1908793 9.75637931 50.1896552 9.78086207 50.1896552 9.80534483 50.1896552"></polygon>
                <polygon id="Path" points="6.15741379 50.1896552 6.18189655 50.1908793 6.20637931 50.1921034 6.22963793 50.1945517 6.25412069 50.197 6.27860345 50.1994483 6.30308621 50.2031207 6.32634483 50.2067931 6.35082759 50.2116897 6.37408621 50.2165862 6.39856897 50.2214828 6.42182759 50.2276034 6.44508621 50.2337241 6.46834483 50.2398448 6.49160345 50.2471897 6.51486207 50.2545345 6.53812069 50.2631034 6.56137931 50.2716724 6.58341379 50.2802414 6.60544828 50.2900345 6.6287069 50.2998276 6.65074138 50.3096207 6.67155172 50.3206379 6.69358621 50.3316552 6.71562069 50.3438966 6.73643103 50.3561379 6.75724138 50.3683793 6.77805172 50.3806207 6.79886207 50.3940862 6.81844828 50.4075517 6.83803448 50.4222414 6.85762069 50.436931 6.8772069 50.4516207 6.89556897 50.4663103 6.91515517 50.4822241 6.93351724 50.4981379 6.95065517 50.5140517 6.96901724 50.5311897 6.98615517 50.5483276 7.0032931 50.5654655 7.02043103 50.5838276 7.03634483 50.6009655 7.05225862 50.6193276 7.06817241 50.6389138 7.08286207 50.6572759 7.09755172 50.6768621 7.11224138 50.6964483 7.12693103 50.7160345 7.14039655 50.7356207 7.15386207 50.756431 7.16610345 50.7772414 7.17834483 50.7980517 7.19058621 50.8188621 7.20282759 50.8408966 7.21384483 50.862931 7.22486207 50.8837414 7.23465517 50.9057759 7.24444828 50.9290345 7.25424138 50.951069 7.26281034 50.9731034 7.27137931 50.9963621 7.27994828 51.0196207 7.2872931 51.0428793 7.29463793 51.0661379 7.30075862 51.0893966 7.30687931 51.1126552 7.313 51.1359138 7.31789655 51.1603966 7.3227931 51.1836552 7.32768966 51.2081379 7.33136207 51.2313966 7.33503448 51.2558793 7.33748276 51.2803621 7.33993103 51.3048448 7.34237931 51.3281034 7.34360345 51.3525862 7.34482759 51.377069 7.34482759 51.4015517 7.34482759 51.4260345 7.34482759 51.4505172 7.34360345 51.475 7.34237931 51.4994828 7.33993103 51.5227414 7.33748276 51.5472241 7.33503448 51.5717069 7.33136207 51.5961897 7.32768966 51.6194483 7.3227931 51.643931 7.31789655 51.6671897 7.313 51.6916724 7.30687931 51.714931 7.30075862 51.7381897 7.29463793 51.7614483 7.2872931 51.7847069 7.27994828 51.8079655 7.27137931 51.8312241 7.26281034 51.8544828 7.25424138 51.8765172 7.24444828 51.8985517 7.23465517 51.9218103 7.22486207 51.9438448 7.21384483 51.9646552 7.20282759 51.9866897 7.19058621 52.0087241 7.17834483 52.0295345 7.16610345 52.0503448 7.15386207 52.0711552 7.14039655 52.0919655 7.12693103 52.1115517 7.11224138 52.1311379 7.09755172 52.1507241 7.08286207 52.1703103 7.06817241 52.1886724 7.05225862 52.2082586 7.03634483 52.2266207 7.02043103 52.2437586 7.0032931 52.2621207 6.98615517 52.2792586 5.76201724 53.5033966 5.74487931 53.5205345 5.72651724 53.5376724 5.70937931 53.5535862 5.69101724 53.5695 5.67143103 53.5854138 5.65306897 53.6001034 5.63348276 53.6147931 5.61389655 53.6294828 5.59431034 53.6441724 5.57472414 53.6576379 5.55391379 53.6711034 5.53310345 53.6833448 5.5122931 53.6955862 5.49148276 53.7078276 5.46944828 53.720069 5.44741379 53.7310862 5.42660345 53.7421034 5.40456897 53.7518966 5.38131034 53.7616897 5.35927586 53.7714828 5.33724138 53.7800517 5.31398276 53.7886207 5.29072414 53.7971897 5.26746552 53.8045345 5.2442069 53.8118793 5.22094828 53.818 5.19768966 53.8241207 5.17443103 53.8302414 5.14994828 53.8351379 5.12668966 53.8400345 5.1022069 53.844931 5.07894828 53.8486034 5.05446552 53.8522759 5.02998276 53.8547241 5.0055 53.8571724 4.98224138 53.8596207 4.95775862 53.8608448 4.93327586 53.862069 4.9087931 53.862069 4.88431034 53.862069 4.85982759 53.862069 4.83534483 53.8608448 4.81086207 53.8596207 4.78760345 53.8571724 4.76312069 53.8547241 4.73863793 53.8522759 4.71415517 53.8486034 4.69089655 53.844931 4.66641379 53.8400345 4.64315517 53.8351379 4.61867241 53.8302414 4.59541379 53.8241207 4.57215517 53.818 4.54889655 53.8118793 4.52563793 53.8045345 4.50237931 53.7971897 4.47912069 53.7886207 4.45586207 53.7800517 4.43382759 53.7714828 4.4117931 53.7616897 4.38853448 53.7518966 4.3665 53.7421034 4.34568966 53.7310862 4.32365517 53.720069 4.30162069 53.7078276 4.28081034 53.6955862 4.26 53.6833448 4.23918966 53.6711034 4.21837931 53.6576379 4.1987931 53.6441724 4.1792069 53.6294828 4.15962069 53.6147931 4.14003448 53.6001034 4.12167241 53.5854138 4.10208621 53.5695 4.08372414 53.5535862 4.06658621 53.5376724 4.04822414 53.5205345 4.03108621 53.5033966 4.01394828 53.4862586 3.99681034 53.4678966 3.98089655 53.4507586 3.96498276 53.4323966 3.94906897 53.4128103 3.93437931 53.3944483 3.91968966 53.3748621 3.905 53.3552759 3.89031034 53.3356897 3.87684483 53.3161034 3.86337931 53.2952931 3.85113793 53.2744828 3.83889655 53.2536724 3.82665517 53.2328621 3.81441379 53.2108276 3.80339655 53.1887931 3.79237931 53.1679828 3.78258621 53.1459483 3.7727931 53.1226897 3.763 53.1006552 3.75443103 53.0786207 3.74586207 53.0553621 3.7372931 53.0321034 3.72994828 53.0088448 3.72260345 52.9855862 3.71648276 52.9623276 3.71036207 52.939069 3.70424138 52.9158103 3.69934483 52.8913276 3.69444828 52.868069 3.68955172 52.8435862 3.68587931 52.8203276 3.6822069 52.7958448 3.67975862 52.7713621 3.67731034 52.7468793 3.67486207 52.7236207 3.67363793 52.6991379 3.67241379 52.6746552 3.67241379 52.6501724 3.67241379 52.6256897 3.67241379 52.6012069 3.67363793 52.5767241 3.67486207 52.5522414 3.67731034 52.5289828 3.67975862 52.5045 3.6822069 52.4800172 3.68587931 52.4555345 3.68955172 52.4322759 3.69444828 52.4077931 3.69934483 52.3845345 3.70424138 52.3600517 3.71036207 52.3367931 3.71648276 52.3135345 3.72260345 52.2902759 3.72994828 52.2670172 3.7372931 52.2437586 3.74586207 52.2205 3.75443103 52.1972414 3.763 52.1752069 3.7727931 52.1531724 3.78258621 52.1299138 3.79237931 52.1078793 3.80339655 52.087069 3.81441379 52.0650345 3.82665517 52.043 3.83889655 52.0221897 3.85113793 52.0013793 3.86337931 51.980569 3.87684483 51.9597586 3.89031034 51.9401724 3.905 51.9205862 3.91968966 51.901 3.93437931 51.8814138 3.94906897 51.8630517 3.96498276 51.8434655 3.98089655 51.8251034 3.99681034 51.8079655 4.01394828 51.7896034 4.03108621 51.7724655 5.25522414 50.5483276 5.27236207 50.5311897 5.29072414 50.5140517 5.30786207 50.4981379 5.32622414 50.4822241 5.34581034 50.4663103 5.36417241 50.4516207 5.38375862 50.436931 5.40334483 50.4222414 5.42293103 50.4075517 5.44251724 50.3940862 5.46332759 50.3806207 5.48413793 50.3683793 5.50494828 50.3561379 5.52575862 50.3438966 5.5477931 50.3316552 5.56982759 50.3206379 5.59063793 50.3096207 5.61267241 50.2998276 5.63593103 50.2900345 5.65796552 50.2802414 5.68 50.2716724 5.70325862 50.2631034 5.72651724 50.2545345 5.74977586 50.2471897 5.77303448 50.2398448 5.7962931 50.2337241 5.81955172 50.2276034 5.84281034 50.2214828 5.8672931 50.2165862 5.89055172 50.2116897 5.91503448 50.2067931 5.9382931 50.2031207 5.96277586 50.1994483 5.98725862 50.197 6.01174138 50.1945517 6.035 50.1921034 6.05948276 50.1908793 6.08396552 50.1896552 6.10844828 50.1896552 6.13293103 50.1896552"></polygon>
                <polygon id="Path" points="11.0539655 45.2931034 11.0784483 45.2943276 11.102931 45.2955517 11.1261897 45.298 11.1506724 45.3004483 11.1751552 45.3028966 11.1996379 45.306569 11.2228966 45.3102414 11.2473793 45.3151379 11.2706379 45.3200345 11.2951207 45.324931 11.3183793 45.3310517 11.3416379 45.3371724 11.3648966 45.3432931 11.3881552 45.3506379 11.4114138 45.3579828 11.4346724 45.3665517 11.457931 45.3751207 11.4799655 45.3836897 11.502 45.3934828 11.5252586 45.4032759 11.5472931 45.413069 11.5681034 45.4240862 11.5901379 45.4351034 11.6121724 45.4473448 11.6329828 45.4595862 11.6537931 45.4718276 11.6746034 45.484069 11.6954138 45.4975345 11.715 45.511 11.7345862 45.5256897 11.7541724 45.5403793 11.7737586 45.555069 11.7921207 45.5697586 11.8117069 45.5856724 11.830069 45.6015862 11.8472069 45.6175 11.865569 45.6346379 11.8827069 45.6517759 11.8998448 45.6689138 11.9169828 45.6872759 11.9328966 45.7044138 11.9488103 45.7227759 11.9647241 45.7423621 11.9794138 45.7607241 11.9941034 45.7803103 12.0087931 45.7998966 12.0234828 45.8194828 12.0369483 45.839069 12.0504138 45.8598793 12.0626552 45.8806897 12.0748966 45.9015 12.0871379 45.9223103 12.0993793 45.9443448 12.1103966 45.9663793 12.1214138 45.9871897 12.1312069 46.0092241 12.141 46.0324828 12.1507931 46.0545172 12.1593621 46.0765517 12.167931 46.0998103 12.1765 46.123069 12.1838448 46.1463276 12.1911897 46.1695862 12.1973103 46.1928448 12.203431 46.2161034 12.2095517 46.2393621 12.2144483 46.2638448 12.2193448 46.2871034 12.2242414 46.3115862 12.2279138 46.3348448 12.2315862 46.3593276 12.2340345 46.3838103 12.2364828 46.4082931 12.238931 46.4315517 12.2401552 46.4560345 12.2413793 46.4805172 12.2413793 46.505 12.2413793 46.5294828 12.2413793 46.5539655 12.2401552 46.5784483 12.238931 46.602931 12.2364828 46.6261897 12.2340345 46.6506724 12.2315862 46.6751552 12.2279138 46.6996379 12.2242414 46.7228966 12.2193448 46.7473793 12.2144483 46.7706379 12.2095517 46.7951207 12.203431 46.8183793 12.1973103 46.8416379 12.1911897 46.8648966 12.1838448 46.8881552 12.1765 46.9114138 12.167931 46.9346724 12.1593621 46.957931 12.1507931 46.9799655 12.141 47.002 12.1312069 47.0252586 12.1214138 47.0472931 12.1103966 47.0681034 12.0993793 47.0901379 12.0871379 47.1121724 12.0748966 47.1329828 12.0626552 47.1537931 12.0504138 47.1746034 12.0369483 47.1954138 12.0234828 47.215 12.0087931 47.2345862 11.9941034 47.2541724 11.9794138 47.2737586 11.9647241 47.2921207 11.9488103 47.3117069 11.9328966 47.330069 11.9169828 47.3472069 11.8998448 47.365569 11.8827069 47.3827069 10.658569 48.6068448 10.641431 48.6239828 10.623069 48.6411207 10.605931 48.6570345 10.587569 48.6729483 10.5679828 48.6888621 10.5496207 48.7035517 10.5300345 48.7182414 10.5104483 48.732931 10.4908621 48.7476207 10.4712759 48.7610862 10.4504655 48.7745517 10.4296552 48.7867931 10.4088448 48.7990345 10.3880345 48.8112759 10.366 48.8235172 10.3439655 48.8345345 10.3231552 48.8455517 10.3011207 48.8553448 10.2778621 48.8651379 10.2558276 48.874931 10.2337931 48.8835 10.2105345 48.892069 10.1872759 48.9006379 10.1640172 48.9079828 10.1407586 48.9153276 10.1175 48.9214483 10.0942414 48.927569 10.0709828 48.9336897 10.0465 48.9385862 10.0232414 48.9434828 9.99875862 48.9483793 9.9755 48.9520517 9.95101724 48.9557241 9.92653448 48.9581724 9.90205172 48.9606207 9.8787931 48.963069 9.85431034 48.9642931 9.82982759 48.9655172 9.80534483 48.9655172 9.78086207 48.9655172 9.75637931 48.9655172 9.73189655 48.9642931 9.70741379 48.963069 9.68415517 48.9606207 9.65967241 48.9581724 9.63518966 48.9557241 9.6107069 48.9520517 9.58744828 48.9483793 9.56296552 48.9434828 9.5397069 48.9385862 9.51522414 48.9336897 9.49196552 48.927569 9.4687069 48.9214483 9.44544828 48.9153276 9.42218966 48.9079828 9.39893103 48.9006379 9.37567241 48.892069 9.35241379 48.8835 9.33037931 48.874931 9.30834483 48.8651379 9.28508621 48.8553448 9.26305172 48.8455517 9.24224138 48.8345345 9.2202069 48.8235172 9.19817241 48.8112759 9.17736207 48.7990345 9.15655172 48.7867931 9.13574138 48.7745517 9.11493103 48.7610862 9.09534483 48.7476207 9.07575862 48.732931 9.05617241 48.7182414 9.03658621 48.7035517 9.01822414 48.6888621 8.99863793 48.6729483 8.98027586 48.6570345 8.96313793 48.6411207 8.94477586 48.6239828 8.92763793 48.6068448 8.9105 48.5897069 8.89336207 48.5713448 8.87744828 48.5542069 8.86153448 48.5358448 8.84562069 48.5162586 8.83093103 48.4978966 8.81624138 48.4783103 8.80155172 48.4587241 8.78686207 48.4391379 8.77339655 48.4195517 8.75993103 48.3987414 8.74768966 48.377931 8.73544828 48.3571207 8.7232069 48.3363103 8.71096552 48.3142759 8.69994828 48.2922414 8.68893103 48.271431 8.67913793 48.2493966 8.66934483 48.2261379 8.65955172 48.2041034 8.65098276 48.182069 8.64241379 48.1588103 8.63384483 48.1355517 8.6265 48.1122931 8.61915517 48.0890345 8.61303448 48.0657759 8.60691379 48.0425172 8.6007931 48.0192586 8.59589655 47.9947759 8.591 47.9715172 8.58610345 47.9470345 8.58243103 47.9237759 8.57875862 47.8992931 8.57631034 47.8748103 8.57386207 47.8503276 8.57141379 47.827069 8.57018966 47.8025862 8.56896552 47.7781034 8.56896552 47.7536207 8.56896552 47.7291379 8.56896552 47.7046552 8.57018966 47.6801724 8.57141379 47.6556897 8.57386207 47.632431 8.57631034 47.6079483 8.57875862 47.5834655 8.58243103 47.5589828 8.58610345 47.5357241 8.591 47.5112414 8.59589655 47.4879828 8.6007931 47.4635 8.60691379 47.4402414 8.61303448 47.4169828 8.61915517 47.3937241 8.6265 47.3704655 8.63384483 47.3472069 8.64241379 47.3239483 8.65098276 47.3006897 8.65955172 47.2786552 8.66934483 47.2566207 8.67913793 47.2333621 8.68893103 47.2113276 8.69994828 47.1905172 8.71096552 47.1684828 8.7232069 47.1464483 8.73544828 47.1256379 8.74768966 47.1048276 8.75993103 47.0840172 8.77339655 47.0632069 8.78686207 47.0436207 8.80155172 47.0240345 8.81624138 47.0044483 8.83093103 46.9848621 8.84562069 46.9665 8.86153448 46.9469138 8.87744828 46.9285517 8.89336207 46.9114138 8.9105 46.8930517 8.92763793 46.8759138 10.1517759 45.6517759 10.1689138 45.6346379 10.1872759 45.6175 10.2044138 45.6015862 10.2227759 45.5856724 10.2423621 45.5697586 10.2607241 45.555069 10.2803103 45.5403793 10.2998966 45.5256897 10.3194828 45.511 10.339069 45.4975345 10.3598793 45.484069 10.3806897 45.4718276 10.4015 45.4595862 10.4223103 45.4473448 10.4443448 45.4351034 10.4663793 45.4240862 10.4871897 45.413069 10.5092241 45.4032759 10.5324828 45.3934828 10.5545172 45.3836897 10.5765517 45.3751207 10.5998103 45.3665517 10.623069 45.3579828 10.6463276 45.3506379 10.6695862 45.3432931 10.6928448 45.3371724 10.7161034 45.3310517 10.7393621 45.324931 10.7638448 45.3200345 10.7871034 45.3151379 10.8115862 45.3102414 10.8348448 45.306569 10.8593276 45.3028966 10.8838103 45.3004483 10.9082931 45.298 10.9315517 45.2955517 10.9560345 45.2943276 10.9805172 45.2931034 11.005 45.2931034 11.0294828 45.2931034"></polygon>
            </g>
        </g>
    </g>
</svg>