<?xml version="1.0" encoding="UTF-8"?>
<svg width="71px" height="48px" viewBox="0 0 71 48" version="1.1" xmlns="http://www.w3.org/2000/svg" xmlns:xlink="http://www.w3.org/1999/xlink">
    <title>partnerships</title>
    <g id="Page-1" stroke="none" stroke-width="1" fill="none" fill-rule="evenodd">
        <g id="icons" transform="translate(-176.000000, -595.000000)" fill="#3B1159">
            <g id="partnerships" transform="translate(176.000000, 595.000000)">
                <path d="M70.5398924,0.733033704 C70.8150175,1.35435221 70.5337481,2.08066201 69.9118152,2.3553024 L57.8016682,7.70559138 L63.978261,24.1027063 L65.1675114,26.6066179 L69.4038919,25.2906597 C70.0531326,25.0890606 70.742652,25.451502 70.9440464,26.1001965 C71.1461234,26.748891 70.7836136,27.4382057 70.134373,27.6398048 L64.8787325,29.2723276 C64.2938698,29.453992 63.6644272,29.1782525 63.4017271,28.6252715 L62.1905622,26.07521 L61.2640119,26.3630332 L60.5987962,29.3669487 C60.9320867,29.7538306 61.2863359,30.2558145 61.4895052,30.9092195 C61.8001986,31.9083401 61.7122678,33.0664598 61.1983368,34.5085796 C60.545751,36.3396293 58.6717599,36.7020025 57.3603758,36.70644 C56.6232043,36.7088977 55.8637088,36.6073131 55.1715951,36.4615582 C55.0929489,37.1220633 54.9095094,37.716825 54.6201843,38.24243 C54.0857726,39.2131506 53.2615578,39.8175383 52.3819085,40.1638 C51.1880157,40.6336973 49.8368988,40.6548608 48.6989186,40.5045319 C48.4031762,41.5821621 47.9721923,42.4715057 47.4005056,43.1724262 C46.6032572,44.1497688 45.5923943,44.6854094 44.5021343,44.8803182 C42.9153519,45.1639769 41.2144917,44.7177008 39.7151622,44.0779496 C39.425291,44.748695 39.0580706,45.3041337 38.6080397,45.7379848 C37.8432875,46.4753611 36.9324391,46.770967 36.0373608,46.7687823 C34.8142488,46.765915 33.6488926,46.2143677 32.765625,45.6066348 C32.0999314,46.0849292 31.3525196,46.4763851 30.6180107,46.7378564 C29.6280382,47.0902623 28.3366569,47.3197153 27.288519,46.8052381 C25.867904,46.1078677 25.1340778,45.1946298 24.8267979,44.3020776 C24.8230431,44.2912227 24.8194248,44.2805045 24.8158748,44.2697179 C24.6163238,44.2698545 24.4005929,44.263915 24.1748265,44.2484862 C23.1894963,44.1814458 21.7064832,43.9165611 20.6932309,42.8615962 C19.8438248,41.977168 19.3524227,40.9186532 19.074362,40.1287779 C19.0337418,40.0134711 18.9971495,39.9023288 18.9642437,39.7963749 C18.7246186,39.8001297 18.4570031,39.7956922 18.1736857,39.776372 C17.1882872,39.7092633 15.7053424,39.4443786 14.6920901,38.3894137 C13.6804763,37.3362239 13.4753272,35.8477493 13.4478829,34.8615999 C13.440032,34.5769854 13.446381,34.3077314 13.4601031,34.0655804 C13.3555146,34.0283736 13.2458742,33.9872755 13.1322741,33.942013 C12.3540046,33.6320706 11.3159023,33.0980684 10.4664962,32.2137085 C9.37719194,31.0795513 9.33602557,29.5064911 9.58793913,28.3281637 C9.71826514,27.7187241 9.95188254,27.0904421 10.2688567,26.537188 L8.13421357,25.1034654 L6.788292,29.0073746 C6.67658984,29.3313122 6.43473917,29.5940806 6.12100097,29.7322575 C5.80725595,29.8703662 5.4500712,29.8714586 5.13549329,29.7352614 L0.741636119,27.8321876 C0.118011475,27.5621144 -0.168465442,26.8378458 0.101771584,26.2145475 C0.372009294,25.5912492 1.09662943,25.304928 1.72025544,25.5750011 L4.89439358,26.9498074 L11.5669284,7.59636057 L0.71962611,2.6439653 C0.101409075,2.36171289 -0.170826876,1.63200328 0.11156754,1.01410506 C0.393961956,0.39621094 1.12405319,0.124114942 1.74226545,0.406363944 L13.6056532,5.82265701 C14.1820505,6.08580768 14.4642756,6.74340447 14.2578294,7.34219413 L14.0737755,7.87612799 L21.2107119,9.09596307 C21.8806381,9.21045061 22.3308738,9.84610567 22.216318,10.5156905 C22.1017622,11.1852754 21.4658341,11.6352381 20.7958396,11.5207505 L13.2611665,10.2329875 L8.96395812,22.6969058 L12.1485142,24.8358499 C12.6939855,24.5897392 13.3642531,24.369093 14.0763014,24.2812304 C15.1626019,24.1471496 16.5233447,24.3109958 17.5687518,25.3994126 C17.5815182,25.4127251 17.5943528,25.4261059 17.6073239,25.4395549 C18.0306616,25.8800964 18.5488253,26.4192188 18.9350245,27.0983613 C19.0962764,27.3819518 19.2318592,27.6835654 19.3365842,28.0088001 C20.7103665,27.8491184 22.2769411,28.5253936 23.5698926,29.8715268 C24.085462,30.408328 24.5580218,31.1221513 24.7514969,31.9303228 C25.0323566,31.9248613 25.3270067,31.9371497 25.6284155,31.9732642 C26.6295841,32.0930767 27.78825,32.4874682 28.7188282,33.4563455 C29.2673717,34.028715 29.9583931,35.0143865 30.2840375,36.1903927 C30.3959308,36.594615 30.4659068,37.029968 30.4694568,37.4804086 C30.5187472,37.4879865 30.5683107,37.4972711 30.6181472,37.5082624 C32.8718519,38.0068328 34.4264794,39.0090938 34.8660652,40.6435281 C35.1585307,41.7306477 34.8660652,42.8073222 34.3864054,43.7282062 C34.9425268,44.0730342 35.5413847,44.3076074 36.043232,44.3088362 C36.363961,44.3095872 36.6395639,44.2179016 36.8992602,43.9674899 C37.1854449,43.6916139 37.5325258,43.142456 37.7835519,42.081893 C37.8711413,41.7118737 38.1250347,41.4031601 38.4712281,41.2455947 C38.8174898,41.0880975 39.217138,41.0994302 39.553842,41.2763841 C41.2403657,42.1627238 42.8638086,42.6741289 44.0688293,42.4587393 C44.6164853,42.3608412 45.0904105,42.1113171 45.4928577,41.6179352 C45.8275136,41.2076369 46.1468089,40.5852944 46.377559,39.6538969 L42.8010009,37.4085893 C42.2254911,37.0472402 42.0519506,36.2880177 42.4135046,35.712781 C42.7749903,35.1375442 43.5346224,34.964072 44.1101322,35.3254212 L48.2449963,37.9212915 C49.2610476,38.168904 50.5555693,38.2387435 51.4800716,37.8748684 C51.9311948,37.6973 52.2562248,37.4335076 52.4638316,37.0565248 C52.6385326,36.739141 52.7771192,36.2553168 52.7519961,35.5190328 L48.0788972,32.2655249 C47.5212056,31.8772093 47.3839844,31.1106138 47.7725048,30.5531954 C48.1609568,29.9957769 48.9279619,29.8586922 49.4856535,30.2469395 L54.4946372,33.7343379 C55.2749548,33.9958774 56.3863783,34.2497025 57.3520469,34.2464256 C58.477807,34.2426708 58.7936205,33.9248091 58.8797081,33.683136 C59.2891188,32.5343009 59.2367563,31.9533295 59.1391312,31.639291 C59.0431447,31.3305774 58.8574523,31.0962773 58.4910512,30.7088493 L39.7198046,19.972348 C39.1298899,19.6349613 38.9253552,18.8834534 39.2629467,18.2938801 C39.6005382,17.7042385 40.3523875,17.4998403 40.9423021,17.837227 L58.41773,27.8325972 L59.0152225,25.1344596 C59.110663,24.7034758 59.4298217,24.356668 59.8515209,24.2257275 L61.2330176,23.796587 L56.1706474,10.3575107 L51.253759,11.6140746 C50.8812136,11.7093102 50.485525,11.6249977 50.1842528,11.3861918 C49.8829806,11.147386 49.710669,10.781531 49.7185199,10.3973116 L49.7315594,9.75885756 L35.6434472,7.90241165 L25.8384117,14.1504141 C25.5182972,15.2995222 25.059596,16.8527843 24.5907228,18.253806 C24.3239265,19.0510544 24.0475726,19.8179912 23.7863744,20.4393097 C23.6817176,20.6882877 23.5746032,20.9257282 23.4667377,21.13866 C23.8550533,21.3218947 24.4127448,21.4816448 25.0466931,21.4946159 C25.7928761,21.50984 26.6150428,21.3220995 27.3924248,20.7586733 C28.1720597,20.1936769 28.9917687,19.1885487 29.6195045,17.4271336 C29.7676488,17.0113055 30.1274278,16.7067564 30.5620982,16.629066 L34.9299652,15.8483387 C35.5990039,15.728731 36.2383455,16.1738466 36.3580215,16.8425439 C36.4776293,17.5112413 36.0323089,18.1503098 35.3632019,18.2699176 L31.6770034,18.9287842 C30.9412656,20.6910868 29.9618066,21.9352257 28.8372754,22.7502241 C27.5716999,23.6674216 26.2077484,23.9787976 24.9963787,23.9540842 C23.805285,23.929712 22.731273,23.5809244 21.9818131,23.1323271 C21.6229216,22.917552 21.240409,22.6216731 20.987881,22.2379316 C20.8599444,22.043569 20.7118684,21.7450275 20.6994434,21.3698197 C20.6858578,20.9601359 20.8397367,20.5716156 21.1267407,20.2813347 C21.1323388,20.2725279 21.1649032,20.226651 21.2220446,20.1209019 C21.3041725,19.9688663 21.4035042,19.7570951 21.5172408,19.4864757 C21.7440313,18.947012 21.9981295,18.2458868 22.2565969,17.4734884 C22.7722346,15.932583 23.2804309,14.1835246 23.590032,13.0450665 C23.6703849,12.749802 23.8579206,12.4950211 24.1160466,12.3305605 L34.6982594,5.58724413 C34.9423902,5.43166532 35.2336269,5.36710991 35.5206991,5.4049379 L51.1452791,7.46384994 C51.7670073,7.54577305 52.2276199,8.08182326 52.2147853,8.7083985 L52.2123276,8.82998605 L55.2981663,8.04133959 L55.0883066,7.48412591 C54.8582392,6.87345741 55.1453797,6.18954282 55.7424626,5.92574358 L68.9171321,0.105310858 C69.5383824,-0.169325167 70.2654499,0.111715197 70.5398924,0.733033704 Z M31.8203688,43.2131829 C32.4479681,42.3278672 32.5931085,41.6683862 32.4892027,41.282187 C32.4112392,40.992384 32.0315939,40.3437578 30.1029874,39.9138663 C30.0860566,39.9160509 30.0418864,39.925199 29.9633768,39.9608355 C29.8099075,40.0306067 29.6027786,40.1683058 29.350865,40.3941405 C28.7753552,40.909983 28.1892636,41.6806746 27.7251009,42.3727884 C27.4991979,42.7096289 27.3135738,43.010628 27.1849545,43.2264954 C27.159968,43.2684127 27.1372343,43.3070531 27.1167536,43.342007 C27.121942,43.3852897 27.1327286,43.4394272 27.1541651,43.5016888 C27.2179969,43.6871081 27.4430123,44.1403477 28.3735906,44.5971373 C28.4951781,44.6568729 28.9648706,44.71497 29.7922257,44.4204564 C30.5140366,44.163491 31.262609,43.72056 31.8203688,43.2131829 Z M25.1706701,41.8011699 C25.3062529,41.578339 25.4791106,41.3036918 25.6806415,41.0031022 C26.1618032,40.2855924 26.851664,39.3523516 27.6250182,38.6378456 C28.047878,38.0781059 28.0866549,37.4776095 27.9118856,36.8465285 C27.7188201,36.1492263 27.2787565,35.5102944 26.9432814,35.1599365 M25.1706701,41.8011699 C24.9354825,41.8122978 24.6484103,41.8150285 24.3420861,41.7942064 C23.5022377,41.737065 22.8191356,41.5226996 22.4687777,41.1580052 C21.954642,40.6226377 21.6115889,39.9243115 21.3960629,39.3122093 C21.3333235,39.1340948 21.2836917,38.9695659 21.2449148,38.8272245 C21.3516196,38.7081629 21.4667898,38.5828206 21.5883091,38.4504465 C22.4386027,37.524374 23.6036859,36.2554533 24.3999102,34.4172353 C24.6708709,34.3851487 24.995696,34.3751132 25.3356769,34.4158016 C25.940406,34.4881671 26.510386,34.7097691 26.9432814,35.1599365 M19.2836755,37.3227066 C19.5199554,37.0455334 19.7578738,36.7854276 19.9933345,36.5280525 C20.8842483,35.554328 21.74014,34.6188344 22.3394758,32.9370213 C22.4373739,32.662374 22.3742248,32.1788912 21.7943457,31.5751179 C20.3171356,30.0370798 19.3796621,30.4819222 19.2020938,30.652254 L15.9546618,33.7679947 C15.9255108,34.0217515 15.8969742,34.3878112 15.9082387,34.7931941 C15.9315868,35.6328377 16.1180301,36.3218793 16.467637,36.6858227 C16.8179265,37.0505853 17.501097,37.2648825 18.3409454,37.3220922 C18.6988128,37.346396 19.0303966,37.3385451 19.2836755,37.3227066 Z M17.0989228,29.2601756 C17.0535237,28.8641457 16.9398554,28.5681984 16.7952611,28.3139637 C16.5742053,27.9253068 16.2601667,27.5892173 15.7931367,27.1030036 C15.4749337,26.7716929 15.0143893,26.6440977 14.377915,26.7226756 C13.761034,26.7987958 13.1473617,27.0573315 12.7703788,27.2782508 C12.5417451,27.4760951 12.1623045,28.0591829 11.9948401,28.8422995 C11.8210948,29.6548402 11.9678054,30.2246154 12.242043,30.5101175 C12.7561788,31.045485 13.440305,31.4165966 14.0433957,31.6567679 C14.1888774,31.7147285 14.3253477,31.7633362 14.4479593,31.8036151 L17.0989228,29.2601756 Z" id="Shape"></path>
            </g>
        </g>
    </g>
</svg>