<?xml version="1.0" encoding="UTF-8"?>
<svg width="71px" height="70px" viewBox="0 0 71 70" version="1.1" xmlns="http://www.w3.org/2000/svg" xmlns:xlink="http://www.w3.org/1999/xlink">
    <title> target</title>
    <g id="Page-1" stroke="none" stroke-width="1" fill="none" fill-rule="evenodd">
        <g id="icons" transform="translate(-64.000000, -584.000000)" fill="#3B1159" fill-rule="nonzero">
            <g id="-target" transform="translate(64.000000, 584.000000)">
                <path d="M54.1206017,18.799048 L55.5598883,17.3543539 L62.5562452,18.3006601 L71,9.85600406 L62.3237243,8.68618939 L61.177342,-4.97379915e-14 L52.7263773,8.45006347 L53.6699797,15.4509266 L51.9477025,17.1732039 C46.4320894,11.7549251 38.8778624,8.40500127 30.5539731,8.40500127 C13.7070195,8.40500127 0,22.1120208 0,38.9589744 C0,55.8059279 13.7070195,69.5129474 30.5539731,69.5129474 C47.4009266,69.5129474 61.1070449,55.8059279 61.1070449,38.9589744 C61.1070449,31.3939325 58.3384235,24.4678726 53.7664128,19.1261995 L54.1178979,18.7747144 L54.1206017,18.799048 Z M61.6036304,15.477964 L57.9247525,14.9804773 L58.9575781,13.9458492 L61.6108403,11.2835745 L65.3005331,11.7810612 L61.6036304,15.477964 Z M55.5472709,9.40357959 L59.2387662,5.71118304 L59.7245367,9.39456715 L56.0420538,13.0779513 L55.5472709,9.40357959 Z M58.4375603,38.9598756 C58.4375603,54.335999 45.928294,66.8443641 30.5530718,66.8443641 C15.1760472,66.8443641 2.66768215,54.3350977 2.66768215,38.9598756 C2.66768215,23.582851 15.1769485,11.0744859 30.5530718,11.0744859 C38.1415461,11.0744859 45.0279513,14.1251968 50.0604976,19.0595075 L44.9026783,24.218228 C41.1913557,20.6051409 36.1299695,18.3736608 30.5530718,18.3736608 C19.2118177,18.3736608 9.98488195,27.6087078 9.98488195,38.9607768 C9.98488195,50.3128459 19.2118177,59.5478929 30.5530718,59.5478929 C41.9051409,59.5478929 51.1401879,50.3128459 51.1401879,38.9607768 C51.1401879,34.1445291 49.4728865,29.7131125 46.6916476,26.2027672 L51.8765042,21.0188119 C55.9654481,25.8720107 58.4375603,32.13115 58.4375603,38.9598756 Z M38.5047474,38.9598756 C38.5047474,43.3345138 34.9376238,46.892625 30.5530718,46.892625 C26.1784336,46.892625 22.6194212,43.3345138 22.6194212,38.9598756 C22.6194212,34.5852374 26.1784336,31.0271262 30.5530718,31.0271262 C32.6412541,31.0271262 34.5401752,31.8409495 35.9596344,33.1603707 L29.6094694,39.5105357 L31.4966743,41.3977405 L37.5989972,35.2954176 C38.1739909,36.3922315 38.5047474,37.6377507 38.5047474,38.9598756 Z M37.8459381,31.274067 C35.9416095,29.4724803 33.3775704,28.359444 30.5530718,28.359444 C24.7076035,28.359444 19.9508378,33.1144072 19.9508378,38.9607768 C19.9508378,44.8071465 24.7067022,49.5621097 30.5530718,49.5621097 C36.4093552,49.5621097 41.1733308,44.8071465 41.1733308,38.9607768 C41.1733308,36.8987306 40.5703986,34.9781797 39.5456842,33.3478294 L44.7927266,28.1016882 C47.0981087,31.1172506 48.4707032,34.8799441 48.4707032,38.9607768 C48.4707032,48.8411145 40.4325083,56.8793095 30.5521706,56.8793095 C20.6817466,56.8793095 12.6525641,48.8411145 12.6525641,38.9607768 C12.6525641,29.0804392 20.6817466,21.0422442 30.5521706,21.0422442 C35.3918507,21.0422442 39.7881188,22.9754125 43.0154735,26.1045316 L37.8459381,31.274067 Z" id="Shape"></path>
            </g>
        </g>
    </g>
</svg>